G04*
G04 #@! TF.GenerationSoftware,Altium Limited,Altium Designer,21.6.4 (81)*
G04*
G04 Layer_Color=8388736*
%FSLAX25Y25*%
%MOIN*%
G70*
G04*
G04 #@! TF.SameCoordinates,AE92149D-F2BC-473A-8121-C18DD6311B00*
G04*
G04*
G04 #@! TF.FilePolarity,Negative*
G04*
G01*
G75*
%ADD39C,0.07275*%
%ADD40R,0.03937X0.01968*%
%ADD41R,0.10249X0.13005*%
%ADD42R,0.20879X0.09265*%
%ADD43R,0.04540X0.04737*%
%ADD44O,0.05131X0.03162*%
%ADD45O,0.09461X0.03162*%
%ADD46R,0.04737X0.04540*%
%ADD47O,0.06502X0.01384*%
%ADD48O,0.01384X0.06502*%
%ADD49R,0.06922X0.05918*%
%ADD50R,0.04737X0.04934*%
%ADD51R,0.04737X0.10249*%
%ADD52R,0.13398X0.10249*%
G04:AMPARAMS|DCode=53|XSize=47.37mil|YSize=49.34mil|CornerRadius=0mil|HoleSize=0mil|Usage=FLASHONLY|Rotation=135.000|XOffset=0mil|YOffset=0mil|HoleType=Round|Shape=Rectangle|*
%AMROTATEDRECTD53*
4,1,4,0.03419,0.00070,-0.00070,-0.03419,-0.03419,-0.00070,0.00070,0.03419,0.03419,0.00070,0.0*
%
%ADD53ROTATEDRECTD53*%

%ADD54P,0.05586X4X180.0*%
%ADD55R,0.06706X0.10642*%
%ADD56R,0.03950X0.03950*%
%ADD57R,0.09461X0.02769*%
%ADD58R,0.14816X0.07808*%
%ADD59R,0.05918X0.08083*%
%ADD60R,0.09855X0.22847*%
%ADD61C,0.10308*%
%ADD62C,0.25603*%
%ADD63C,0.40170*%
%ADD64C,0.06706*%
%ADD65R,0.08300X0.06300*%
%ADD66O,0.08300X0.06300*%
%ADD67C,0.27769*%
%ADD68P,0.09483X4X360.0*%
%ADD69C,0.20879*%
%ADD70C,0.03202*%
%ADD71C,0.05367*%
%ADD72C,0.03200*%
%ADD73C,0.02769*%
D39*
X100000Y-53937D02*
D03*
X-81890Y36614D02*
D03*
X-50394Y-7480D02*
D03*
D40*
X7480Y-2165D02*
D03*
Y394D02*
D03*
Y2953D02*
D03*
X-1181Y-2165D02*
D03*
Y394D02*
D03*
Y2953D02*
D03*
X7480Y-19094D02*
D03*
Y-16535D02*
D03*
Y-13976D02*
D03*
X-1181Y-19094D02*
D03*
Y-16535D02*
D03*
Y-13976D02*
D03*
D41*
X-11811Y-43307D02*
D03*
D42*
X-7874Y-82677D02*
D03*
X-41732D02*
D03*
D43*
X9055Y46063D02*
D03*
Y52362D02*
D03*
X84620Y35025D02*
D03*
Y41324D02*
D03*
X77454Y35025D02*
D03*
Y41324D02*
D03*
X70125Y35025D02*
D03*
Y41324D02*
D03*
X9055Y28346D02*
D03*
Y34646D02*
D03*
X-37700Y-1760D02*
D03*
Y4540D02*
D03*
X-47244Y-24542D02*
D03*
Y-18243D02*
D03*
X-9055Y-8661D02*
D03*
Y-2362D02*
D03*
X-8661Y-25591D02*
D03*
Y-19291D02*
D03*
D44*
X-11567Y41887D02*
D03*
Y34407D02*
D03*
X-21016Y38147D02*
D03*
Y41887D02*
D03*
Y34407D02*
D03*
D45*
X68504Y-17185D02*
D03*
Y-27185D02*
D03*
Y-22185D02*
D03*
Y-12185D02*
D03*
X49606D02*
D03*
Y-17185D02*
D03*
Y-27185D02*
D03*
Y-22185D02*
D03*
D46*
X-49798Y36602D02*
D03*
X-43499D02*
D03*
X47457Y10367D02*
D03*
X41157D02*
D03*
X47323Y3799D02*
D03*
X41024D02*
D03*
X38583Y67716D02*
D03*
X44882D02*
D03*
X-10236Y48819D02*
D03*
X-16535D02*
D03*
X-10236Y27953D02*
D03*
X-16535D02*
D03*
X-65748Y36220D02*
D03*
X-59449D02*
D03*
X18164Y-45567D02*
D03*
X11865D02*
D03*
D47*
X17618Y54134D02*
D03*
Y52165D02*
D03*
Y50197D02*
D03*
Y48228D02*
D03*
Y46260D02*
D03*
Y44291D02*
D03*
Y42323D02*
D03*
Y40354D02*
D03*
Y38386D02*
D03*
Y36417D02*
D03*
Y34449D02*
D03*
Y32480D02*
D03*
Y30512D02*
D03*
Y28543D02*
D03*
Y26575D02*
D03*
Y24606D02*
D03*
X61122D02*
D03*
Y26575D02*
D03*
Y28543D02*
D03*
Y30512D02*
D03*
Y32480D02*
D03*
Y34449D02*
D03*
Y36417D02*
D03*
Y38386D02*
D03*
Y40354D02*
D03*
Y42323D02*
D03*
Y44291D02*
D03*
Y46260D02*
D03*
Y48228D02*
D03*
Y50197D02*
D03*
Y52165D02*
D03*
Y54134D02*
D03*
D48*
X24606Y17618D02*
D03*
X26575D02*
D03*
X28543D02*
D03*
X30512D02*
D03*
X32480D02*
D03*
X34449D02*
D03*
X36417D02*
D03*
X38386D02*
D03*
X40354D02*
D03*
X42323D02*
D03*
X44291D02*
D03*
X46260D02*
D03*
X48228D02*
D03*
X50197D02*
D03*
X52165D02*
D03*
X54134D02*
D03*
Y61122D02*
D03*
X52165D02*
D03*
X50197D02*
D03*
X48228D02*
D03*
X46260D02*
D03*
X44291D02*
D03*
X42323D02*
D03*
X40354D02*
D03*
X38386D02*
D03*
X36417D02*
D03*
X34449D02*
D03*
X32480D02*
D03*
X30512D02*
D03*
X28543D02*
D03*
X26575D02*
D03*
X24606D02*
D03*
D49*
X7677Y81599D02*
D03*
Y99315D02*
D03*
X38976Y81599D02*
D03*
Y99315D02*
D03*
X-43209Y81693D02*
D03*
Y99410D02*
D03*
X-11909Y81693D02*
D03*
Y99410D02*
D03*
D50*
X-30813Y28346D02*
D03*
Y34646D02*
D03*
X78740Y-16535D02*
D03*
Y-22835D02*
D03*
X-30813Y47244D02*
D03*
Y40945D02*
D03*
X-70079Y6299D02*
D03*
Y0D02*
D03*
X-54376Y-24542D02*
D03*
Y-18243D02*
D03*
X-40128Y-18243D02*
D03*
Y-24542D02*
D03*
D51*
X-59055Y27559D02*
D03*
X-40945D02*
D03*
X-50000D02*
D03*
D52*
Y4724D02*
D03*
D53*
X-101833Y85175D02*
D03*
X-97379Y89629D02*
D03*
D54*
X-85499Y101509D02*
D03*
X-90092Y96916D02*
D03*
D55*
X-82450Y21379D02*
D03*
X-94970D02*
D03*
X-82450Y5631D02*
D03*
X-94970D02*
D03*
D56*
X-70079Y19882D02*
D03*
Y13386D02*
D03*
D57*
X-23130Y-35807D02*
D03*
Y-40807D02*
D03*
Y-45807D02*
D03*
X-492Y-35807D02*
D03*
Y-40807D02*
D03*
X-23130Y-50807D02*
D03*
X-492Y-45807D02*
D03*
Y-50807D02*
D03*
D58*
X-82677Y-9055D02*
D03*
Y-46063D02*
D03*
D59*
X-51181Y-55118D02*
D03*
X-39764D02*
D03*
X23228D02*
D03*
X11811D02*
D03*
D60*
X13097Y-90017D02*
D03*
X42231D02*
D03*
D61*
X-19487Y19487D02*
D03*
X19487Y-19487D02*
D03*
D62*
X-72381Y72381D02*
D03*
D63*
X72381Y-72381D02*
D03*
D64*
X83937Y1181D02*
D03*
X73937Y11181D02*
D03*
X63937D02*
D03*
X93937Y1181D02*
D03*
X63937D02*
D03*
X73937D02*
D03*
X83937Y11181D02*
D03*
X103937Y1181D02*
D03*
X-66929Y-102362D02*
D03*
X-102362Y-66929D02*
D03*
X94488Y94488D02*
D03*
X101559Y87417D02*
D03*
X87417Y101559D02*
D03*
X115701Y73275D02*
D03*
X108630Y80346D02*
D03*
X80346Y108630D02*
D03*
D65*
X94488Y-23622D02*
D03*
D66*
Y-15748D02*
D03*
D67*
X-90551Y-94488D02*
D03*
D68*
X73275Y115701D02*
D03*
D69*
X-72381Y-72381D02*
D03*
X72381Y72381D02*
D03*
D70*
X-29528Y87402D02*
D03*
X-70079Y36220D02*
D03*
X-43447Y-91085D02*
D03*
X-40018D02*
D03*
X28014Y78357D02*
D03*
X15333Y78368D02*
D03*
X55905Y83465D02*
D03*
X7874Y90551D02*
D03*
X-11024D02*
D03*
X-26055Y41851D02*
D03*
X-40945Y74016D02*
D03*
X23228Y44882D02*
D03*
X-5334Y34522D02*
D03*
X49213Y-3937D02*
D03*
X53543Y6693D02*
D03*
X49606Y24803D02*
D03*
X61024Y-25591D02*
D03*
X16535Y6299D02*
D03*
X20472Y14961D02*
D03*
X26378Y33465D02*
D03*
X33465Y40551D02*
D03*
Y52362D02*
D03*
X39143Y73867D02*
D03*
X47638Y41339D02*
D03*
X45276Y28740D02*
D03*
X58268Y-22441D02*
D03*
X68504Y-7874D02*
D03*
X-1575Y75984D02*
D03*
X58661Y76378D02*
D03*
X33858Y67716D02*
D03*
X53076Y11737D02*
D03*
X9038Y41179D02*
D03*
X9055Y24016D02*
D03*
X48031Y53543D02*
D03*
X11417Y-1969D02*
D03*
Y-19291D02*
D03*
X13780Y59055D02*
D03*
X-1974Y99366D02*
D03*
X-75197Y20079D02*
D03*
D71*
X-40945Y16535D02*
D03*
X40354Y39961D02*
D03*
X59055Y101575D02*
D03*
X394Y-7874D02*
D03*
X-103543Y13780D02*
D03*
D72*
X-51181Y-62598D02*
D03*
X29528Y-55118D02*
D03*
X23622Y-45669D02*
D03*
X-42913Y-12598D02*
D03*
X-16291Y38147D02*
D03*
X52321Y38472D02*
D03*
X52442Y42993D02*
D03*
X-30315Y-35827D02*
D03*
Y-40945D02*
D03*
X-23622Y-56299D02*
D03*
X-25591Y-28740D02*
D03*
D73*
X-13976Y-38976D02*
D03*
Y-43307D02*
D03*
X-9646D02*
D03*
Y-38976D02*
D03*
Y-47638D02*
D03*
X-13976D02*
D03*
M02*
