G04*
G04 #@! TF.GenerationSoftware,Altium Limited,Altium Designer,21.6.4 (81)*
G04*
G04 Layer_Physical_Order=1*
G04 Layer_Color=255*
%FSLAX25Y25*%
%MOIN*%
G70*
G04*
G04 #@! TF.SameCoordinates,AE92149D-F2BC-473A-8121-C18DD6311B00*
G04*
G04*
G04 #@! TF.FilePolarity,Positive*
G04*
G01*
G75*
%ADD10C,0.01000*%
%ADD17C,0.06475*%
%ADD18R,0.03543X0.01575*%
%ADD19R,0.09449X0.12205*%
%ADD20R,0.20079X0.08465*%
%ADD21R,0.03740X0.03937*%
%ADD22O,0.04331X0.02362*%
%ADD23O,0.08661X0.02362*%
%ADD24R,0.03937X0.03740*%
%ADD27R,0.06122X0.05118*%
%ADD28R,0.03937X0.04134*%
%ADD29R,0.03937X0.09449*%
%ADD30R,0.12598X0.09449*%
G04:AMPARAMS|DCode=31|XSize=39.37mil|YSize=41.34mil|CornerRadius=0mil|HoleSize=0mil|Usage=FLASHONLY|Rotation=135.000|XOffset=0mil|YOffset=0mil|HoleType=Round|Shape=Rectangle|*
%AMROTATEDRECTD31*
4,1,4,0.02854,0.00070,-0.00070,-0.02854,-0.02854,-0.00070,0.00070,0.02854,0.02854,0.00070,0.0*
%
%ADD31ROTATEDRECTD31*%

%ADD32P,0.04454X4X180.0*%
%ADD33R,0.05906X0.09843*%
%ADD34R,0.03150X0.03150*%
%ADD35R,0.08661X0.01968*%
%ADD36R,0.14016X0.07008*%
%ADD37R,0.05118X0.07284*%
%ADD38R,0.09055X0.22047*%
%ADD74O,0.06102X0.00984*%
%ADD75O,0.00984X0.06102*%
%ADD76C,0.01500*%
%ADD77C,0.04567*%
%ADD78C,0.02000*%
%ADD79C,0.09508*%
%ADD80C,0.24803*%
%ADD81C,0.39370*%
%ADD82C,0.05906*%
%ADD83R,0.07500X0.05500*%
%ADD84O,0.07500X0.05500*%
%ADD85C,0.26969*%
%ADD86P,0.08352X4X360.0*%
%ADD87C,0.20079*%
%ADD88C,0.02402*%
%ADD89C,0.04567*%
%ADD90C,0.02400*%
%ADD91C,0.01968*%
D10*
X72381Y-72381D02*
X80075D01*
X98519Y-53937D01*
X100000D01*
X-76270Y27559D02*
Y30994D01*
X-81890Y36614D02*
X-76270Y30994D01*
X-66829Y35139D02*
X-65748Y36220D01*
X-70079D02*
X-65748D01*
X-99Y52440D02*
X-21Y52362D01*
X-1575Y53816D02*
Y75984D01*
Y53816D02*
X-149Y52390D01*
X-421Y48819D02*
X-399Y48841D01*
X-10236Y48819D02*
X-421D01*
X0Y52362D02*
X9055D01*
X-21D02*
X0D01*
X9055D02*
X9252Y52165D01*
X17618D01*
X28014Y78357D02*
X31154Y81496D01*
X57284Y42323D02*
X83622D01*
X0Y33661D02*
X984Y34646D01*
X9055D01*
X-25931Y41974D02*
X-21272D01*
X38583Y67716D02*
X38681D01*
X33858D02*
X38583D01*
X9038Y41179D02*
Y45750D01*
X7874Y28346D02*
Y28445D01*
X9055Y28346D02*
Y28445D01*
Y24016D02*
Y28346D01*
X-11909Y99410D02*
X38881D01*
X-30813Y48031D02*
X-17323D01*
X-9646Y-43748D02*
Y-43307D01*
X39681Y67198D02*
X42323Y64556D01*
Y61122D02*
Y64556D01*
X38681Y67716D02*
X40051Y66347D01*
X46457Y46063D02*
X53543D01*
X57284Y42323D01*
X61122Y28543D02*
X67126D01*
X70125Y31542D02*
Y35025D01*
X67126Y28543D02*
X70125Y31542D01*
X13780Y55429D02*
Y59055D01*
X15075Y54134D02*
X17618D01*
X13780Y55429D02*
X15075Y54134D01*
X31154Y81496D02*
X38873D01*
X12102Y81599D02*
X15333Y78368D01*
X7677Y81599D02*
X12102D01*
X-9154Y-2165D02*
X-1181D01*
X40354Y3784D02*
Y17618D01*
X38873Y81496D02*
X38976Y81599D01*
X50197Y61122D02*
Y77756D01*
X55905Y83465D01*
X52165Y73819D02*
X65551Y87205D01*
X52165Y61122D02*
Y73819D01*
X65551Y87205D02*
X101347D01*
X42323Y10605D02*
Y17618D01*
Y10605D02*
X42334Y10594D01*
X45276Y28361D02*
Y28740D01*
X44291Y27377D02*
X45276Y28361D01*
X44291Y17618D02*
Y27377D01*
X-26055Y41851D02*
X-25931Y41974D01*
X-43004Y81693D02*
X-11909D01*
X-43004D02*
X-40945Y79634D01*
Y74016D02*
Y79634D01*
X-43209Y81693D02*
X-43004D01*
X21457Y48228D02*
X23106Y46579D01*
Y45004D02*
X23228Y44882D01*
X17618Y48228D02*
X21457D01*
X23106Y45004D02*
Y46579D01*
X77454Y35025D02*
X84620D01*
X70125D02*
X77454D01*
X-11700Y34618D02*
X-11652Y34570D01*
X-5382D01*
X-5334Y34522D01*
X49213Y-3937D02*
X59449Y6299D01*
X80315D01*
X83937Y9921D02*
Y11181D01*
X80315Y6299D02*
X83937Y9921D01*
X53543Y6693D02*
X58031Y11181D01*
X63937D01*
X72998Y12120D02*
Y14009D01*
X57087Y21654D02*
X65354D01*
X72998Y12120D02*
X73937Y11181D01*
X65354Y21654D02*
X72998Y14009D01*
X53937Y24803D02*
X57087Y21654D01*
X49606Y24803D02*
X53937D01*
X59429Y-27185D02*
X61024Y-25591D01*
X49606Y-27185D02*
X59429D01*
X46457D02*
X49606D01*
X63779Y-1161D02*
Y-787D01*
X52756Y-12185D02*
X63779Y-1161D01*
X49606Y-12185D02*
X52756D01*
X94213Y-5144D02*
Y1693D01*
Y-12222D02*
Y-9230D01*
X101626Y-9176D01*
X101604Y-6176D02*
X101626Y-9176D01*
X94217Y-6230D02*
X101604Y-6176D01*
X94213Y-5644D02*
X94217Y-6230D01*
X94213Y-5644D02*
Y-5144D01*
Y-15472D02*
Y-12222D01*
Y-15472D02*
X94488Y-15748D01*
X93937Y1969D02*
X94213Y1693D01*
X97738Y-20372D02*
X103937Y-14173D01*
Y-394D01*
X94488Y-23622D02*
X95488D01*
X97738Y-21372D01*
Y-20372D01*
X-50394Y4331D02*
X-50000Y4724D01*
X-50394Y-7480D02*
Y4331D01*
X16535Y-9449D02*
Y6299D01*
X12008Y-13976D02*
X16535Y-9449D01*
X20472Y14961D02*
X20472D01*
X7480Y2953D02*
X8465D01*
X20472Y14961D01*
X26567Y61114D02*
X26575Y61122D01*
X26567Y33654D02*
Y61114D01*
X26378Y33465D02*
X26567Y33654D01*
X28543Y45472D02*
Y61122D01*
Y45472D02*
X33465Y40551D01*
X33196Y40283D02*
X33465Y40551D01*
X30512Y55315D02*
X33465Y52362D01*
X30512Y55315D02*
Y61122D01*
X7480Y-13976D02*
X12008D01*
X9554Y34449D02*
X17618D01*
X9381Y34622D02*
X9554Y34449D01*
X61122Y36417D02*
X68755D01*
X70125Y35047D01*
Y35025D02*
Y35047D01*
X39143Y73867D02*
Y81432D01*
X38976Y81599D02*
X39143Y81432D01*
X47638Y38189D02*
Y41339D01*
Y38189D02*
X51378Y34449D01*
X61122D01*
X47835Y32480D02*
X61122D01*
X40354Y39961D02*
X47835Y32480D01*
X45465Y28551D02*
X61114D01*
X61122Y28543D01*
X45276Y28740D02*
X45465Y28551D01*
X70125Y41226D02*
Y41324D01*
X61122Y26575D02*
Y28543D01*
X49734Y-22313D02*
X58140D01*
X58268Y-22441D01*
X49606Y-22185D02*
X49734Y-22313D01*
X68504Y-12185D02*
Y-7874D01*
X60354Y-17185D02*
X65354Y-12185D01*
X49606Y-17185D02*
X60354D01*
X65354Y-12185D02*
X68504D01*
X7874Y81796D02*
Y90551D01*
X7677Y81599D02*
X7874Y81796D01*
X-11909Y81693D02*
X-11024Y82579D01*
Y90551D01*
X61024Y94488D02*
X87494D01*
X93794Y100787D02*
X100000D01*
X87494Y94488D02*
X93794Y100787D01*
X38976Y81599D02*
X48134D01*
X61024Y94488D01*
X100000Y100787D02*
X108630Y92157D01*
Y80346D02*
Y92157D01*
X54134Y61122D02*
Y71850D01*
X58661Y76378D01*
X101347Y87205D02*
X101559Y87417D01*
X9038Y45750D02*
X13484Y50197D01*
X26575Y7697D02*
Y17618D01*
Y7697D02*
X46457Y-12185D01*
X49606D01*
X24606Y-5335D02*
X46457Y-27185D01*
X24606Y-5335D02*
Y17618D01*
X40354Y39961D02*
X46457Y46063D01*
X40354Y50541D02*
Y61122D01*
Y39961D02*
Y50541D01*
X44284Y54470D01*
X40354Y17618D02*
Y39961D01*
X48221Y53732D02*
Y61114D01*
X48228Y61122D01*
X48031Y53543D02*
X48221Y53732D01*
X-1181Y-13976D02*
Y-10414D01*
X394Y-8839D01*
Y-7874D01*
X-8756D02*
X394D01*
X-8793Y-7837D02*
X-8756Y-7874D01*
X2362Y-4940D02*
Y-394D01*
X394Y-7874D02*
Y-6909D01*
X2362Y-4940D01*
X-1181Y394D02*
X1575D01*
X2362Y-394D01*
Y-21260D02*
Y-17717D01*
X1469Y-16823D02*
X2362Y-17717D01*
X-894Y-16823D02*
X1469D01*
X-1181Y-16535D02*
X-894Y-16823D01*
X-1969Y-25591D02*
X2362Y-21260D01*
X-8661Y-25591D02*
X-1969D01*
X-1181Y-16535D02*
Y-13976D01*
X-9055Y-8661D02*
X-9055Y-8661D01*
X-1181Y394D02*
Y2953D01*
X7579Y-2067D02*
X11319D01*
X11417Y-1969D01*
X7480Y-2165D02*
X7579Y-2067D01*
X7579Y-19193D02*
X11319D01*
X7480Y-19094D02*
X7579Y-19193D01*
X11319D02*
X11417Y-19291D01*
X4831Y106D02*
X7193D01*
X7480Y394D01*
X4331Y-394D02*
X4831Y106D01*
X4331Y-15950D02*
Y-394D01*
X4916Y-16535D02*
X7480D01*
X4331Y-15950D02*
X4916Y-16535D01*
X-15539Y4220D02*
Y4540D01*
Y-12315D02*
Y4220D01*
X-8661Y-19291D02*
Y-19193D01*
X-15539Y-12315D02*
X-8661Y-19193D01*
X-15539Y4220D02*
X-9154Y-2165D01*
X-8661Y-19291D02*
X-8465Y-19094D01*
X-1181D01*
X7480Y-16535D02*
X14233D01*
X17185Y-19487D01*
X19487D01*
X44291Y61122D02*
Y67520D01*
X44488Y67716D01*
X44284Y61114D02*
X44291Y61122D01*
X44284Y54470D02*
Y61114D01*
X53076Y11737D02*
X54134Y12795D01*
Y17618D01*
X48827Y11737D02*
X53076D01*
X47457Y10367D02*
X48827Y11737D01*
X47323Y3799D02*
X47457Y3932D01*
Y10367D01*
X44291Y13434D02*
X47358Y10367D01*
X44291Y13434D02*
Y17618D01*
X47358Y10367D02*
X47457D01*
X40354Y3784D02*
X40439Y3699D01*
X9055Y28445D02*
X13091Y32480D01*
X17618D01*
X13484Y50197D02*
X17618D01*
X-30785Y34618D02*
X-21148D01*
X-30813Y34646D02*
X-30785Y34618D01*
X-30813Y34646D02*
Y40945D01*
X-29344Y26779D02*
X-26780D01*
X-30813Y28248D02*
Y28346D01*
Y28248D02*
X-29344Y26779D01*
X-26780D02*
X-19487Y19487D01*
X-17323Y48031D02*
X-16535Y48819D01*
X6496Y-2165D02*
X7480D01*
X7193Y-18807D02*
X7480Y-19094D01*
X-85499Y101509D02*
Y101509D01*
X17618Y54134D02*
X20161D01*
X-42913Y-7071D02*
X-37700Y-1858D01*
X-42913Y-12598D02*
Y-7071D01*
X-37700Y-1858D02*
Y-1760D01*
X-43209Y99410D02*
X-11909D01*
X38881D02*
X38976Y99315D01*
X17958Y-17958D02*
X19487Y-19487D01*
X-94970Y21379D02*
Y23347D01*
X-59449Y27953D02*
X-59055Y27559D01*
X-59449Y27953D02*
Y36220D01*
X-75197Y20079D02*
X-70276D01*
X-70079Y19882D01*
X-51181Y-62598D02*
Y-55118D01*
X23228D02*
X29528D01*
X18164Y-45567D02*
X18266Y-45669D01*
X23622D01*
X-54376Y-18243D02*
X-47244D01*
X-47244Y-18243D01*
X-82677Y-9055D02*
X-63465D01*
X-54376Y-18144D01*
Y-18243D02*
Y-18144D01*
X9752Y-51976D02*
X11811Y-54035D01*
X-7874Y-82677D02*
X-6631D01*
X-838Y-81449D02*
X390Y-80220D01*
X-6631Y-82677D02*
X-2067D01*
X-838Y-81449D01*
X-41597Y-16774D02*
Y-14294D01*
X-42913Y-12977D02*
Y-12598D01*
Y-12977D02*
X-41597Y-14294D01*
Y-16774D02*
X-40128Y-18243D01*
X-16295Y47938D02*
X-16291Y47935D01*
Y38147D02*
Y47935D01*
X-11700Y42098D02*
Y48031D01*
X-10094Y47938D02*
X-9995D01*
X-10330Y27953D02*
X-10236D01*
X-11700Y29323D02*
Y34618D01*
Y29323D02*
X-10330Y27953D01*
X-16291Y28197D02*
Y38147D01*
X-16535Y27953D02*
X-16291Y28197D01*
X-21043Y38253D02*
X-16397D01*
X-16291Y38147D01*
X-21148Y38358D02*
X-21043Y38253D01*
X84620Y35025D02*
Y35047D01*
X83250Y36417D02*
X84620Y35047D01*
X83622Y42323D02*
X84620Y41324D01*
X52442Y42993D02*
X55104Y40331D01*
X60236D01*
X57768Y38410D02*
X58374D01*
X52321Y38472D02*
X57705D01*
X57768Y38410D01*
X-30246Y-40876D02*
X-23199D01*
X-23130Y-40807D01*
X-30315Y-40945D02*
X-30246Y-40876D01*
X-23622Y-56299D02*
Y-51291D01*
X-23138Y-50807D02*
X-23130D01*
X-23622Y-51291D02*
X-23138Y-50807D01*
X-70079Y6299D02*
Y13386D01*
Y0D02*
X-56299D01*
X-51575Y4724D01*
X11791Y-50807D02*
X11811Y-50787D01*
X-29789Y-24542D02*
X-25591Y-28740D01*
X-40128Y-24542D02*
X-29789D01*
X-47244Y-24542D02*
X-40128D01*
X-54376D02*
X-47244D01*
X-37705Y-51976D02*
X-35417D01*
X-29248Y-45807D01*
X-23130D01*
X-39764Y-55118D02*
Y-54035D01*
X-37705Y-51976D01*
X-40128Y-24542D02*
X-40128Y-24542D01*
X-82677Y-46063D02*
X-79173D01*
X78740Y-22835D02*
X79528Y-23622D01*
X94488D01*
X78091Y-22185D02*
X78740Y-22835D01*
X68504Y-22185D02*
X78091D01*
X79528Y-15748D02*
X94488D01*
X78740Y-16535D02*
X79528Y-15748D01*
X78091Y-17185D02*
X78740Y-16535D01*
X68504Y-17185D02*
X78091D01*
X-7587Y-37071D02*
X-6323Y-35807D01*
X-7587Y-37705D02*
Y-37071D01*
X-8858Y-38976D02*
X-7587Y-37705D01*
X-6323Y-35807D02*
X-492D01*
X-9646Y-38976D02*
X-8858D01*
X-7587Y-45807D02*
X-492D01*
X-9646Y-43748D02*
X-7587Y-45807D01*
X11811Y-55118D02*
Y-54035D01*
D17*
X100000Y-53937D02*
D03*
X-81890Y36614D02*
D03*
X-50394Y-7480D02*
D03*
D18*
X7480Y-2165D02*
D03*
Y394D02*
D03*
Y2953D02*
D03*
X-1181Y-2165D02*
D03*
Y394D02*
D03*
Y2953D02*
D03*
X7480Y-19094D02*
D03*
Y-16535D02*
D03*
Y-13976D02*
D03*
X-1181Y-19094D02*
D03*
Y-16535D02*
D03*
Y-13976D02*
D03*
D19*
X-11811Y-43307D02*
D03*
D20*
X-7874Y-82677D02*
D03*
X-41732D02*
D03*
D21*
X9055Y46063D02*
D03*
Y52362D02*
D03*
X84620Y35025D02*
D03*
Y41324D02*
D03*
X77454Y35025D02*
D03*
Y41324D02*
D03*
X70125Y35025D02*
D03*
Y41324D02*
D03*
X9055Y28346D02*
D03*
Y34646D02*
D03*
X-37700Y-1760D02*
D03*
Y4540D02*
D03*
X-47244Y-24542D02*
D03*
Y-18243D02*
D03*
X-9055Y-8661D02*
D03*
Y-2362D02*
D03*
X-8661Y-25591D02*
D03*
Y-19291D02*
D03*
D22*
X-11567Y41887D02*
D03*
Y34407D02*
D03*
X-21016Y38147D02*
D03*
Y41887D02*
D03*
Y34407D02*
D03*
D23*
X68504Y-17185D02*
D03*
Y-27185D02*
D03*
Y-22185D02*
D03*
Y-12185D02*
D03*
X49606D02*
D03*
Y-17185D02*
D03*
Y-27185D02*
D03*
Y-22185D02*
D03*
D24*
X-49798Y36602D02*
D03*
X-43499D02*
D03*
X47457Y10367D02*
D03*
X41157D02*
D03*
X47323Y3799D02*
D03*
X41024D02*
D03*
X38583Y67716D02*
D03*
X44882D02*
D03*
X-10236Y48819D02*
D03*
X-16535D02*
D03*
X-10236Y27953D02*
D03*
X-16535D02*
D03*
X-65748Y36220D02*
D03*
X-59449D02*
D03*
X18164Y-45567D02*
D03*
X11865D02*
D03*
D27*
X7677Y81599D02*
D03*
Y99315D02*
D03*
X38976Y81599D02*
D03*
Y99315D02*
D03*
X-43209Y81693D02*
D03*
Y99410D02*
D03*
X-11909Y81693D02*
D03*
Y99410D02*
D03*
D28*
X-30813Y28346D02*
D03*
Y34646D02*
D03*
X78740Y-16535D02*
D03*
Y-22835D02*
D03*
X-30813Y47244D02*
D03*
Y40945D02*
D03*
X-70079Y6299D02*
D03*
Y0D02*
D03*
X-54376Y-24542D02*
D03*
Y-18243D02*
D03*
X-40128Y-18243D02*
D03*
Y-24542D02*
D03*
D29*
X-59055Y27559D02*
D03*
X-40945D02*
D03*
X-50000D02*
D03*
D30*
Y4724D02*
D03*
D31*
X-101833Y85175D02*
D03*
X-97379Y89629D02*
D03*
D32*
X-85499Y101509D02*
D03*
X-90092Y96916D02*
D03*
D33*
X-82450Y21379D02*
D03*
X-94970D02*
D03*
X-82450Y5631D02*
D03*
X-94970D02*
D03*
D34*
X-70079Y19882D02*
D03*
Y13386D02*
D03*
D35*
X-23130Y-35807D02*
D03*
Y-40807D02*
D03*
Y-45807D02*
D03*
X-492Y-35807D02*
D03*
Y-40807D02*
D03*
X-23130Y-50807D02*
D03*
X-492Y-45807D02*
D03*
Y-50807D02*
D03*
D36*
X-82677Y-9055D02*
D03*
Y-46063D02*
D03*
D37*
X-51181Y-55118D02*
D03*
X-39764D02*
D03*
X23228D02*
D03*
X11811D02*
D03*
D38*
X13097Y-90017D02*
D03*
X42231D02*
D03*
D74*
X17618Y54134D02*
D03*
Y52165D02*
D03*
Y50197D02*
D03*
Y48228D02*
D03*
Y46260D02*
D03*
Y44291D02*
D03*
Y42323D02*
D03*
Y40354D02*
D03*
Y38386D02*
D03*
Y36417D02*
D03*
Y34449D02*
D03*
Y32480D02*
D03*
Y30512D02*
D03*
Y28543D02*
D03*
Y26575D02*
D03*
Y24606D02*
D03*
X61122D02*
D03*
Y26575D02*
D03*
Y28543D02*
D03*
Y30512D02*
D03*
Y32480D02*
D03*
Y34449D02*
D03*
Y36417D02*
D03*
Y38386D02*
D03*
Y40354D02*
D03*
Y42323D02*
D03*
Y44291D02*
D03*
Y46260D02*
D03*
Y48228D02*
D03*
Y50197D02*
D03*
Y52165D02*
D03*
Y54134D02*
D03*
D75*
X24606Y17618D02*
D03*
X26575D02*
D03*
X28543D02*
D03*
X30512D02*
D03*
X32480D02*
D03*
X34449D02*
D03*
X36417D02*
D03*
X38386D02*
D03*
X40354D02*
D03*
X42323D02*
D03*
X44291D02*
D03*
X46260D02*
D03*
X48228D02*
D03*
X50197D02*
D03*
X52165D02*
D03*
X54134D02*
D03*
Y61122D02*
D03*
X52165D02*
D03*
X50197D02*
D03*
X48228D02*
D03*
X46260D02*
D03*
X44291D02*
D03*
X42323D02*
D03*
X40354D02*
D03*
X38386D02*
D03*
X36417D02*
D03*
X34449D02*
D03*
X32480D02*
D03*
X30512D02*
D03*
X28543D02*
D03*
X26575D02*
D03*
X24606D02*
D03*
D76*
X-85499Y101509D02*
X-80315Y106693D01*
X-65748D01*
X-46457Y87402D01*
X-29528D01*
X-59357Y46063D02*
X-50000Y36706D01*
X-97379Y89629D02*
X-90092Y96916D01*
X-104724Y65748D02*
Y82283D01*
Y65748D02*
X-85039Y46063D01*
X-59357D01*
D77*
X-43447Y-91085D02*
Y-84392D01*
X-40018Y-91085D02*
Y-84392D01*
X-41732Y-82677D02*
X-40018Y-84392D01*
X-43447Y-84392D02*
X-41732Y-82677D01*
X0Y52362D02*
Y56693D01*
Y33661D02*
Y52362D01*
X-40945Y16535D02*
Y27559D01*
X33858Y90551D02*
X48031D01*
X0Y56693D02*
X33858Y90551D01*
X-50000Y27559D02*
Y36706D01*
X-50000Y4724D02*
X-37700D01*
X48031Y90551D02*
X59055Y101575D01*
X0Y20079D02*
Y33661D01*
X-15539Y4540D02*
X0Y20079D01*
X-37700Y4540D02*
X-15539D01*
X-50000Y4724D02*
Y27559D01*
X-68937Y-35827D02*
X-30315D01*
X-79173Y-46063D02*
X-68937Y-35827D01*
X-94970Y13505D02*
Y21379D01*
Y5631D02*
Y13505D01*
X-95245Y13780D02*
X-94970Y13505D01*
X-103543Y13780D02*
X-95245D01*
X-492Y-50807D02*
X11791D01*
X11811Y-54035D02*
Y-50787D01*
X-30315Y-35827D02*
X-23150D01*
X-23130Y-35807D01*
X-51575Y4724D02*
X-50000D01*
X-50000Y4724D01*
X-82450Y23347D02*
X-81781Y24016D01*
X-76270Y27559D02*
X-59055D01*
X-82450Y21379D02*
Y23347D01*
X-81781Y24016D02*
X-79812D01*
X-76270Y27559D01*
X-82450Y5631D02*
Y21379D01*
Y-8828D02*
Y5631D01*
X-82677Y-9055D02*
X-82450Y-8828D01*
X390Y-80220D02*
X11811Y-68799D01*
X-2067Y-82677D02*
X-118Y-84626D01*
X2557Y-90017D02*
X13097D01*
X-118Y-87341D02*
X2557Y-90017D01*
X-118Y-87341D02*
Y-84626D01*
X11811Y-68799D02*
Y-55118D01*
Y-50787D02*
Y-45612D01*
X42231Y-90017D02*
X54746D01*
X7006Y-40807D02*
X11811Y-45612D01*
X-492Y-40807D02*
X7006D01*
X54746Y-90017D02*
X72381Y-72381D01*
D78*
X20472Y20079D02*
X40354Y39961D01*
X0Y20079D02*
X20472D01*
X-43499Y32455D02*
X-42327Y31284D01*
X-41913D01*
X-40945Y27559D02*
Y30315D01*
X-43499Y32455D02*
Y36602D01*
X-41913Y31284D02*
X-40945Y30315D01*
X-90092Y96916D02*
Y96916D01*
X-101833Y85174D02*
Y85175D01*
X-104724Y82283D02*
X-101833Y85174D01*
X-43499Y36602D02*
X-43400D01*
D79*
X-19487Y19487D02*
D03*
X19487Y-19487D02*
D03*
D80*
X-72381Y72381D02*
D03*
D81*
X72381Y-72381D02*
D03*
D82*
X83937Y1181D02*
D03*
X73937Y11181D02*
D03*
X63937D02*
D03*
X93937Y1181D02*
D03*
X63937D02*
D03*
X73937D02*
D03*
X83937Y11181D02*
D03*
X103937Y1181D02*
D03*
X-66929Y-102362D02*
D03*
X-102362Y-66929D02*
D03*
X94488Y94488D02*
D03*
X101559Y87417D02*
D03*
X87417Y101559D02*
D03*
X115701Y73275D02*
D03*
X108630Y80346D02*
D03*
X80346Y108630D02*
D03*
D83*
X94488Y-23622D02*
D03*
D84*
Y-15748D02*
D03*
D85*
X-90551Y-94488D02*
D03*
D86*
X73275Y115701D02*
D03*
D87*
X-72381Y-72381D02*
D03*
X72381Y72381D02*
D03*
D88*
X-29528Y87402D02*
D03*
X-70079Y36220D02*
D03*
X-43447Y-91085D02*
D03*
X-40018D02*
D03*
X28014Y78357D02*
D03*
X15333Y78368D02*
D03*
X55905Y83465D02*
D03*
X7874Y90551D02*
D03*
X-11024D02*
D03*
X-26055Y41851D02*
D03*
X-40945Y74016D02*
D03*
X23228Y44882D02*
D03*
X-5334Y34522D02*
D03*
X49213Y-3937D02*
D03*
X53543Y6693D02*
D03*
X49606Y24803D02*
D03*
X61024Y-25591D02*
D03*
X16535Y6299D02*
D03*
X20472Y14961D02*
D03*
X26378Y33465D02*
D03*
X33465Y40551D02*
D03*
Y52362D02*
D03*
X39143Y73867D02*
D03*
X47638Y41339D02*
D03*
X45276Y28740D02*
D03*
X58268Y-22441D02*
D03*
X68504Y-7874D02*
D03*
X-1575Y75984D02*
D03*
X58661Y76378D02*
D03*
X33858Y67716D02*
D03*
X53076Y11737D02*
D03*
X9038Y41179D02*
D03*
X9055Y24016D02*
D03*
X48031Y53543D02*
D03*
X11417Y-1969D02*
D03*
Y-19291D02*
D03*
X13780Y59055D02*
D03*
X-1974Y99366D02*
D03*
X-75197Y20079D02*
D03*
D89*
X-40945Y16535D02*
D03*
X40354Y39961D02*
D03*
X59055Y101575D02*
D03*
X394Y-7874D02*
D03*
X-103543Y13780D02*
D03*
D90*
X-51181Y-62598D02*
D03*
X29528Y-55118D02*
D03*
X23622Y-45669D02*
D03*
X-42913Y-12598D02*
D03*
X-16291Y38147D02*
D03*
X52321Y38472D02*
D03*
X52442Y42993D02*
D03*
X-30315Y-35827D02*
D03*
Y-40945D02*
D03*
X-23622Y-56299D02*
D03*
X-25591Y-28740D02*
D03*
D91*
X-13976Y-38976D02*
D03*
Y-43307D02*
D03*
X-9646D02*
D03*
Y-38976D02*
D03*
Y-47638D02*
D03*
X-13976D02*
D03*
M02*
