M48
;Layer_Color=9474304
;FILE_FORMAT=2:5
INCH,LZ
;TYPE=PLATED
T1F00S00C0.00787
T2F00S00C0.01200
T3F00S00C0.01201
T4F00S00C0.02000
T5F00S00C0.03150
T6F00S00C0.03543
T7F00S00C0.06339
T8F00S00C0.20000
T9F00S00C0.24803
;TYPE=NON_PLATED
T10F00S00C0.20079
T11F00S00C0.24803
%
T01
X-0013976Y-0047638
Y-0043307
Y-0038976
X-0009646
Y-0043307
Y-0047638
T02
X-0051181Y-0062598
X-0023622Y-0056299
X-0030315Y-0040945
Y-0035827
X0023622Y-0045669
X0029528Y-0055118
X-0025591Y-002874
X-0016291Y0038147
X0052321Y0038472
X0052442Y0042993
X-0042913Y-0012598
T03
X-0043447Y-0091085
X-0040018
X0011417Y-0019291
Y-0001969
X0016535Y0006299
X0020472Y0014961
X0009055Y0024016
X0009038Y0041179
X0023228Y0044882
X0026378Y0033465
X0033465Y0040551
Y0052362
X0033858Y0067716
X0039143Y0073867
X0028014Y0078357
X0015333Y0078368
X-0001575Y0075984
X-0001974Y0099366
X-0011024Y0090551
X0007874
X001378Y0059055
X0048031Y0053543
X0047638Y0041339
X0045276Y002874
X0049606Y0024803
X0053076Y0011737
X0053543Y0006693
X0049213Y-0003937
X0068504Y-0007874
X0058268Y-0022441
X0061024Y-0025591
X0058661Y0076378
X0055905Y0083465
X-0029528Y0087402
X-0026055Y0041851
X-0005334Y0034522
X-0070079Y003622
X-0075197Y0020079
X-0040945Y0074016
T04
X0000394Y-0007874
X0040354Y0039961
X0059055Y0101575
X-0040945Y0016535
X-0103543Y001378
T05
X0094488Y-0023622
Y-0015748
T06
X-0066929Y-0102362
X-0102362Y-0066929
X0063937Y0001181
Y0011181
X0073937
Y0001181
X0083937
X0093937
X0103937
X0083937Y0011181
X0094488Y0094488
X0087417Y0101559
X0080346Y010863
X0073275Y0115701
X0101559Y0087417
X010863Y0080346
X0115701Y0073275
T07
X-0019487Y0019487
X0019487Y-0019487
T08
X-0090551Y-0094488
T09
X0072381Y-0072381
T10
X-0072381Y-0072381
X0072381Y0072381
T11
X-0072381Y0072381
M30
