G04*
G04 #@! TF.GenerationSoftware,Altium Limited,Altium Designer,21.6.4 (81)*
G04*
G04 Layer_Color=65535*
%FSLAX25Y25*%
%MOIN*%
G70*
G04*
G04 #@! TF.SameCoordinates,AE92149D-F2BC-473A-8121-C18DD6311B00*
G04*
G04*
G04 #@! TF.FilePolarity,Positive*
G04*
G01*
G75*
%ADD10C,0.01000*%
%ADD11C,0.00984*%
%ADD12C,0.02362*%
%ADD13C,0.00787*%
%ADD14C,0.00500*%
%ADD15C,0.00600*%
%ADD16C,0.00591*%
G36*
X36365Y-34781D02*
X56470Y-34769D01*
X56556Y-34806D01*
X56642Y-34892D01*
X56667Y-34942D01*
X56753Y-35028D01*
X56803Y-35053D01*
X56865Y-35115D01*
X56889Y-35164D01*
X56926Y-35226D01*
X57025Y-35250D01*
X57272Y-35275D01*
X57333Y-35337D01*
X57407Y-35460D01*
X57494Y-35522D01*
X57605Y-35633D01*
X57630Y-35682D01*
X57667Y-35719D01*
X57716Y-35744D01*
X57827Y-35855D01*
X57852Y-35904D01*
X57914Y-35966D01*
X57963Y-35991D01*
X58074Y-36102D01*
X58099Y-36151D01*
X58136Y-36188D01*
X58185Y-36213D01*
X58296Y-36324D01*
X58321Y-36373D01*
X58382Y-36435D01*
X58506Y-36509D01*
X58543Y-36546D01*
X58555Y-36756D01*
X58531Y-36904D01*
X58518Y-36991D01*
X58592Y-37114D01*
X58629Y-37151D01*
X58753Y-37225D01*
X58790Y-37336D01*
X58765Y-51332D01*
X58703Y-51393D01*
X58580Y-51467D01*
X58543Y-51504D01*
X58518Y-51825D01*
X58481Y-51862D01*
X58321Y-51949D01*
X58296Y-52047D01*
X58271Y-52294D01*
X58210Y-52356D01*
X58086Y-52430D01*
X58049Y-52541D01*
X58074Y-52615D01*
X58049Y-52763D01*
X58012Y-52800D01*
X57889Y-52874D01*
X57827Y-52936D01*
X57802Y-52986D01*
X57716Y-53072D01*
X57667Y-53096D01*
X57580Y-53183D01*
X57506Y-53306D01*
X57185Y-53331D01*
X57136Y-53380D01*
X57062Y-53504D01*
X57025Y-53541D01*
X56926Y-53566D01*
X56519Y-53553D01*
X56432Y-53615D01*
X56346Y-53751D01*
X56309Y-53788D01*
X56136Y-53812D01*
X55963Y-53788D01*
X36155Y-53800D01*
X36069Y-53763D01*
X36007Y-53701D01*
X35933Y-53578D01*
X35822Y-53541D01*
X35649Y-53566D01*
X35538Y-53479D01*
X35464Y-53356D01*
X35427Y-53319D01*
X35106Y-53294D01*
X35007Y-53146D01*
X34909Y-53047D01*
X34859Y-53022D01*
X34822Y-52986D01*
X34797Y-52936D01*
X34686Y-52825D01*
X34637Y-52800D01*
X34575Y-52739D01*
X34551Y-52689D01*
X34464Y-52603D01*
X34415Y-52578D01*
X34353Y-52541D01*
X34328Y-52442D01*
X34304Y-52196D01*
X34242Y-52134D01*
X34193Y-52109D01*
X34082Y-51998D01*
X34057Y-51949D01*
X33995Y-51887D01*
X33872Y-51813D01*
X33835Y-51677D01*
X33860Y-51282D01*
Y-42125D01*
Y-42100D01*
X33847Y-37077D01*
X33884Y-36991D01*
X33946Y-36929D01*
X34069Y-36855D01*
X34106Y-36744D01*
X34082Y-36423D01*
X34106Y-36299D01*
X34193Y-36213D01*
X34242Y-36188D01*
X34353Y-36077D01*
X34378Y-36028D01*
X34415Y-35991D01*
X34464Y-35966D01*
X34600Y-35831D01*
X34625Y-35781D01*
X34662Y-35744D01*
X34711Y-35719D01*
X34773Y-35682D01*
X34797Y-35633D01*
X34884Y-35497D01*
X34995Y-35485D01*
X35180Y-35497D01*
X35267Y-35411D01*
X35291Y-35361D01*
X35402Y-35250D01*
X35452Y-35226D01*
X35513Y-35164D01*
X35587Y-35041D01*
X35698Y-35004D01*
X35871Y-35028D01*
X35982Y-34942D01*
X36056Y-34819D01*
X36093Y-34781D01*
X36266Y-34757D01*
X36365Y-34781D01*
D02*
G37*
%LPC*%
G36*
X55791Y-36016D02*
X55433Y-36028D01*
X51471Y-36016D01*
X51446D01*
X37118Y-36028D01*
X36834Y-36016D01*
X36772Y-36077D01*
X36698Y-36201D01*
X36636Y-36262D01*
X36155Y-36250D01*
X36069Y-36312D01*
X35995Y-36435D01*
X35945Y-36460D01*
X35896Y-36509D01*
X35846Y-36534D01*
X35809Y-36571D01*
X35785Y-36620D01*
X35748Y-36682D01*
X35698Y-36707D01*
X35563Y-36818D01*
X35538Y-37139D01*
X35501Y-37176D01*
X35340Y-37262D01*
X35328Y-37398D01*
X35340Y-37558D01*
X35279Y-37645D01*
X35106Y-37743D01*
X35094Y-50567D01*
X35180Y-50653D01*
X35304Y-50727D01*
X35340Y-50838D01*
X35328Y-51245D01*
X35390Y-51332D01*
X35427Y-51369D01*
X35550Y-51443D01*
X35575Y-51764D01*
X35649Y-51838D01*
X35698Y-51862D01*
X35760Y-51899D01*
X35785Y-51949D01*
X35896Y-52084D01*
X35945Y-52109D01*
X36056Y-52220D01*
X36081Y-52270D01*
X36118Y-52307D01*
X36217Y-52331D01*
X36464Y-52307D01*
X56223Y-52319D01*
X56309Y-52282D01*
X56408Y-52134D01*
X56544Y-52023D01*
X56618Y-51949D01*
X56642Y-51899D01*
X56679Y-51862D01*
X56729Y-51838D01*
X56840Y-51727D01*
X56865Y-51677D01*
X56902Y-51640D01*
X56951Y-51616D01*
X57087Y-51480D01*
X57111Y-51430D01*
X57148Y-51393D01*
X57198Y-51369D01*
X57284Y-51307D01*
X57309Y-51208D01*
X57284Y-50739D01*
X57296Y-37299D01*
X57247Y-37225D01*
X57124Y-37151D01*
X57087Y-37114D01*
X57062Y-37065D01*
X57025Y-37003D01*
X56976Y-36978D01*
X56840Y-36867D01*
X56815Y-36793D01*
X56790Y-36522D01*
X56679Y-36485D01*
X56507Y-36509D01*
X56396Y-36448D01*
X56297Y-36275D01*
X55976Y-36250D01*
X55902Y-36176D01*
X55828Y-36053D01*
X55791Y-36016D01*
D02*
G37*
%LPD*%
G36*
X49274Y-37447D02*
X49311Y-37558D01*
X49287Y-37830D01*
X49200Y-37916D01*
X47312Y-37904D01*
X47226Y-37941D01*
X47164Y-38003D01*
X47176Y-38361D01*
X47164Y-41903D01*
X47189Y-41977D01*
X47164Y-42051D01*
X47189Y-42298D01*
X47250Y-42359D01*
X47423Y-42384D01*
X47546Y-42310D01*
X47583Y-42273D01*
X47608Y-42224D01*
X47695Y-42137D01*
X47744Y-42112D01*
X47855Y-42001D01*
X47880Y-41952D01*
X47917Y-41915D01*
X47966Y-41890D01*
X48077Y-41779D01*
X48102Y-41730D01*
X48164Y-41668D01*
X48213Y-41643D01*
X48324Y-41532D01*
X48349Y-41483D01*
X48410Y-41421D01*
X48460Y-41397D01*
X48546Y-41310D01*
X48571Y-41261D01*
X48632Y-41199D01*
X48682Y-41174D01*
X48793Y-41063D01*
X48818Y-41014D01*
X48879Y-40952D01*
X48929Y-40928D01*
X49015Y-40841D01*
X49040Y-40792D01*
X49101Y-40730D01*
X49151Y-40705D01*
X49262Y-40594D01*
X49287Y-40545D01*
X49348Y-40483D01*
X49398Y-40459D01*
X49509Y-40347D01*
X49534Y-40298D01*
X49595Y-40236D01*
X49645Y-40212D01*
X49731Y-40125D01*
X49756Y-40076D01*
X49817Y-40014D01*
X49867Y-39990D01*
X49978Y-39879D01*
X50002Y-39829D01*
X50064Y-39768D01*
X50113Y-39743D01*
X50200Y-39656D01*
X50225Y-39607D01*
X50286Y-39545D01*
X50336Y-39521D01*
X50447Y-39410D01*
X50471Y-39360D01*
X50533Y-39298D01*
X50582Y-39274D01*
X50694Y-39163D01*
X50718Y-39113D01*
X50755Y-39076D01*
X50805Y-39052D01*
X50866Y-38990D01*
X50891Y-38941D01*
X51002Y-38805D01*
X51150Y-38829D01*
X51212Y-38891D01*
X51200Y-39422D01*
X51249Y-39496D01*
X51409Y-39582D01*
X51459Y-39780D01*
X51434Y-39879D01*
X51459Y-40422D01*
X51656Y-40545D01*
X51681Y-40644D01*
X51706Y-41137D01*
X51903Y-41261D01*
X51928Y-41335D01*
X51903Y-41853D01*
X51817Y-41940D01*
X51644Y-41915D01*
X51607Y-41878D01*
X51582Y-41631D01*
X51607Y-41458D01*
X51582Y-41285D01*
X51521Y-41224D01*
X51434Y-41187D01*
X51409Y-41137D01*
X51348Y-41026D01*
X51249Y-41002D01*
X51163Y-41088D01*
X51089Y-41212D01*
X51051Y-41249D01*
X51002Y-41273D01*
X50965Y-41310D01*
X50940Y-41656D01*
X50903Y-41693D01*
X50805Y-41717D01*
X50607Y-41693D01*
X50496Y-41779D01*
X50471Y-41829D01*
X50434Y-41890D01*
X50385Y-41915D01*
X50249Y-42026D01*
X50225Y-42075D01*
X50113Y-42186D01*
X50064Y-42211D01*
X50027Y-42248D01*
X50002Y-42298D01*
X49867Y-42433D01*
X49817Y-42458D01*
X49780Y-42495D01*
X49706Y-42618D01*
X49669Y-42655D01*
X49348Y-42680D01*
X49250Y-42828D01*
X49200Y-42878D01*
X49151Y-42902D01*
X49040Y-43013D01*
X49015Y-43063D01*
X48978Y-43100D01*
X48929Y-43124D01*
X48818Y-43235D01*
X48793Y-43285D01*
X48731Y-43347D01*
X48682Y-43371D01*
X48571Y-43482D01*
X48546Y-43532D01*
X48484Y-43593D01*
X48435Y-43618D01*
X48324Y-43729D01*
X48299Y-43778D01*
X48262Y-43816D01*
X48213Y-43840D01*
X48102Y-43951D01*
X48077Y-44001D01*
X48015Y-44062D01*
X47966Y-44087D01*
X47855Y-44198D01*
X47830Y-44247D01*
X47793Y-44285D01*
X47744Y-44309D01*
X47633Y-44420D01*
X47571Y-44531D01*
X47472Y-44556D01*
X47201Y-44581D01*
X47164Y-44692D01*
X47176Y-45000D01*
X47164Y-46247D01*
Y-46272D01*
X47176Y-49123D01*
X47164Y-49382D01*
X47250Y-49468D01*
X48756Y-49493D01*
X48818Y-49554D01*
X48842Y-49653D01*
X48818Y-50172D01*
X48756Y-50233D01*
X48583Y-50258D01*
X46732Y-50233D01*
X46670Y-50196D01*
X46621Y-49999D01*
X46646Y-49752D01*
X46633Y-37571D01*
X46658Y-37472D01*
X46683Y-37423D01*
X46806Y-37373D01*
X48867Y-37385D01*
X49151Y-37373D01*
X49274Y-37447D01*
D02*
G37*
G36*
X45967D02*
X46004Y-37583D01*
X45991Y-37916D01*
X46004Y-49703D01*
X45979Y-49777D01*
X46004Y-49949D01*
X45979Y-50147D01*
X45917Y-50233D01*
X45745Y-50258D01*
X43646Y-50233D01*
X43585Y-50172D01*
X43560Y-50073D01*
Y-49974D01*
Y-49949D01*
X43585Y-49530D01*
X43622Y-49493D01*
X43720Y-49468D01*
X45177Y-49443D01*
X45214Y-49406D01*
X45239Y-49234D01*
X45214Y-49160D01*
X45226Y-44679D01*
X45189Y-44593D01*
X45041Y-44494D01*
X44930Y-44334D01*
X44881Y-44309D01*
X44770Y-44223D01*
X44745Y-44173D01*
X44708Y-44112D01*
X44658Y-44087D01*
X44609Y-44038D01*
X44560Y-44013D01*
X44486Y-43890D01*
X44436Y-43865D01*
X44387Y-43816D01*
X44338Y-43791D01*
X44301Y-43754D01*
X44276Y-43705D01*
X44214Y-43618D01*
X44115Y-43593D01*
X43930Y-43606D01*
X43844Y-43544D01*
X43758Y-43408D01*
X43720Y-43371D01*
X43597Y-43297D01*
X43560Y-43260D01*
X43535Y-42939D01*
X43498Y-42902D01*
X43387Y-42890D01*
X43227Y-42902D01*
X43116Y-42816D01*
X43042Y-42693D01*
X43005Y-42655D01*
X42955Y-42631D01*
X42869Y-42544D01*
X42844Y-42495D01*
X42758Y-42409D01*
X42709Y-42384D01*
X42622Y-42298D01*
X42597Y-42248D01*
X42536Y-42186D01*
X42486Y-42162D01*
X42375Y-42051D01*
X42351Y-42001D01*
X42289Y-41940D01*
X41968Y-41915D01*
X41869Y-41742D01*
X41820Y-41717D01*
X41684Y-41631D01*
X41660Y-41532D01*
X41672Y-41347D01*
X41610Y-41261D01*
X41573Y-41224D01*
X41462Y-41162D01*
X41437Y-41113D01*
X41351Y-41002D01*
X41252Y-40977D01*
X41104Y-41002D01*
X41042Y-41063D01*
X41030Y-41174D01*
X41042Y-41335D01*
X40956Y-41446D01*
X40833Y-41495D01*
X40795Y-41532D01*
X40771Y-42125D01*
X40709Y-42186D01*
X40561Y-42162D01*
X40475Y-42075D01*
X40450Y-41903D01*
X40475Y-41754D01*
X40450Y-41680D01*
X40475Y-41508D01*
X40536Y-41446D01*
X40697Y-41360D01*
X40721Y-41187D01*
X40697Y-41113D01*
X40721Y-40817D01*
X40808Y-40730D01*
X40857Y-40705D01*
X40993Y-40570D01*
X41018Y-40520D01*
X41166Y-40422D01*
X41215Y-40298D01*
X41190Y-40051D01*
X41215Y-39607D01*
X41277Y-39545D01*
X41326Y-39521D01*
X41413Y-39459D01*
X41437Y-39360D01*
X41413Y-38916D01*
X41499Y-38805D01*
X41672Y-38829D01*
X41709Y-38866D01*
X41808Y-39039D01*
X41894Y-39101D01*
X41956Y-39163D01*
X41980Y-39212D01*
X42042Y-39274D01*
X42091Y-39298D01*
X42202Y-39410D01*
X42227Y-39459D01*
X42289Y-39521D01*
X42412Y-39595D01*
X42449Y-39706D01*
X42425Y-39879D01*
X42511Y-39990D01*
X42832Y-40014D01*
X42869Y-40051D01*
X42894Y-40101D01*
X43005Y-40236D01*
X43054Y-40261D01*
X43141Y-40347D01*
X43165Y-40397D01*
X43227Y-40459D01*
X43276Y-40483D01*
X43387Y-40594D01*
X43412Y-40644D01*
X43474Y-40705D01*
X43523Y-40730D01*
X43609Y-40817D01*
X43634Y-40866D01*
X43720Y-40952D01*
X43770Y-40977D01*
X43856Y-41063D01*
X43881Y-41113D01*
X43943Y-41174D01*
X43992Y-41199D01*
X44078Y-41285D01*
X44103Y-41335D01*
X44190Y-41421D01*
X44239Y-41446D01*
X44325Y-41532D01*
X44350Y-41582D01*
X44436Y-41668D01*
X44486Y-41693D01*
X44572Y-41779D01*
X44597Y-41829D01*
X44658Y-41890D01*
X44708Y-41915D01*
X44819Y-42026D01*
X44844Y-42075D01*
X45016Y-42248D01*
X45041Y-42298D01*
X45103Y-42359D01*
X45202Y-42335D01*
X45239Y-42298D01*
X45214Y-41680D01*
X45226Y-38040D01*
X45189Y-37953D01*
X45152Y-37916D01*
X44992Y-37904D01*
X43449Y-37916D01*
X43338Y-37830D01*
X43313Y-37731D01*
X43338Y-37484D01*
X43375Y-37423D01*
X43498Y-37373D01*
X43807Y-37385D01*
X45843Y-37373D01*
X45967Y-37447D01*
D02*
G37*
G36*
X52101Y-42149D02*
X52125Y-42199D01*
X52175Y-42273D01*
Y-42298D01*
X52261Y-42384D01*
X52310Y-42409D01*
X52372Y-42470D01*
X52397Y-42569D01*
X52384Y-42754D01*
X52397Y-43013D01*
X52310Y-43124D01*
X52138Y-43100D01*
X52101Y-43063D01*
X52002Y-42890D01*
X51878Y-42816D01*
X51854Y-42717D01*
X51841Y-42236D01*
X51903Y-42149D01*
X52014Y-42112D01*
X52101Y-42149D01*
D02*
G37*
G36*
X52582Y-43322D02*
X52644Y-43458D01*
Y-43482D01*
X52631Y-43890D01*
X52668Y-43976D01*
X52705Y-44013D01*
X52841Y-44075D01*
X52890Y-44247D01*
X52878Y-44457D01*
X52890Y-44618D01*
X52816Y-44741D01*
X52779Y-44778D01*
X52668Y-44791D01*
X52582Y-44754D01*
X52545Y-44642D01*
X52520Y-44124D01*
X52459Y-44062D01*
X52360Y-44038D01*
X52323Y-44001D01*
X52298Y-43828D01*
X52323Y-43408D01*
X52360Y-43347D01*
X52483Y-43297D01*
X52582Y-43322D01*
D02*
G37*
G36*
X40487Y-42409D02*
X40524Y-42421D01*
X40573Y-42544D01*
X40549Y-42791D01*
X40487Y-42853D01*
X40351Y-42915D01*
X40327Y-43013D01*
X40302Y-43754D01*
X40240Y-43816D01*
X40104Y-43877D01*
X40080Y-43976D01*
X40092Y-44359D01*
X40067Y-44457D01*
X39993Y-44531D01*
X39969D01*
X39858Y-44618D01*
X39833Y-44791D01*
X39858Y-44889D01*
X39833Y-45186D01*
X39796Y-45247D01*
X39697Y-45272D01*
X39574Y-45222D01*
X39512Y-45087D01*
X39537Y-44568D01*
X39574Y-44531D01*
X39746Y-44433D01*
X39759Y-44099D01*
X39734Y-44025D01*
X39759Y-43927D01*
X39821Y-43816D01*
X39981Y-43729D01*
X40006Y-43630D01*
X39981Y-43161D01*
X40006Y-42915D01*
X40043Y-42878D01*
X40216Y-42779D01*
X40240Y-42458D01*
X40302Y-42372D01*
X40438Y-42359D01*
X40487Y-42409D01*
D02*
G37*
G36*
X53075Y-45025D02*
X53113Y-45062D01*
X53137Y-45630D01*
X53199Y-45691D01*
X53273Y-45716D01*
X53335Y-45778D01*
X53359Y-45877D01*
X53335Y-46346D01*
X53248Y-46432D01*
X53150Y-46457D01*
X53039Y-46395D01*
X53014Y-46296D01*
X52989Y-45778D01*
X52952Y-45741D01*
X52792Y-45654D01*
X52767Y-45482D01*
Y-45210D01*
Y-45186D01*
X52804Y-45050D01*
X52878Y-44976D01*
X52989Y-44963D01*
X53075Y-45025D01*
D02*
G37*
G36*
X39549Y-45469D02*
X39586Y-45506D01*
X39611Y-45605D01*
X39586Y-45901D01*
Y-45926D01*
X39611Y-46272D01*
X39537Y-46395D01*
X39450Y-46457D01*
X39364Y-46543D01*
X39290Y-46666D01*
X39154Y-46679D01*
X39092Y-46642D01*
X39068Y-46593D01*
X39043Y-46518D01*
X39068Y-46000D01*
X39043Y-45926D01*
X39080Y-45790D01*
X39105Y-45741D01*
X39154Y-45716D01*
X39204Y-45667D01*
X39253Y-45642D01*
X39376Y-45445D01*
X39549Y-45469D01*
D02*
G37*
G36*
X53544Y-46654D02*
X53582Y-46765D01*
X53606Y-47061D01*
X53693Y-47123D01*
X53705Y-47135D01*
X53717Y-47148D01*
X53767Y-47172D01*
X53804Y-47210D01*
X53828Y-47506D01*
X53915Y-47592D01*
X53964Y-47617D01*
X54026Y-47679D01*
X54050Y-47777D01*
X54063Y-48184D01*
X54026Y-48271D01*
X53964Y-48333D01*
X53878Y-48345D01*
X53791Y-48308D01*
X53754Y-48271D01*
X53668Y-48110D01*
X53619Y-48086D01*
X53532Y-48024D01*
X53508Y-47925D01*
X53483Y-47456D01*
X53396Y-47370D01*
X53347Y-47345D01*
X53285Y-47284D01*
X53261Y-47185D01*
X53248Y-46802D01*
X53298Y-46679D01*
X53421Y-46630D01*
X53544Y-46654D01*
D02*
G37*
G36*
X54260Y-48555D02*
X54297Y-48666D01*
X54322Y-48962D01*
X54359Y-48999D01*
X55297D01*
X55976Y-48987D01*
X56099Y-49011D01*
X56149Y-49061D01*
X56173Y-49160D01*
X56149Y-49703D01*
X56112Y-49740D01*
X56013Y-49764D01*
X53347Y-49740D01*
X53285Y-49678D01*
X53261Y-49579D01*
X53285Y-49086D01*
X53322Y-49024D01*
X53520Y-48974D01*
X53841Y-48999D01*
X53915Y-48974D01*
X53952Y-48937D01*
X53977Y-48839D01*
X53952Y-48666D01*
X54063Y-48530D01*
X54174Y-48518D01*
X54260Y-48555D01*
D02*
G37*
G36*
X39092Y-46913D02*
X39117Y-46963D01*
X39142Y-47037D01*
Y-47061D01*
Y-47086D01*
X39166Y-47111D01*
X39142Y-47185D01*
X39117Y-47308D01*
X39055Y-47370D01*
X38957Y-47395D01*
X38920Y-47432D01*
X38895Y-47530D01*
X38907Y-48184D01*
X38870Y-48271D01*
X38833Y-48308D01*
X38673Y-48394D01*
X38660Y-48555D01*
X38673Y-48740D01*
X38648Y-48814D01*
X38685Y-48950D01*
X38734Y-48999D01*
X39055Y-49024D01*
X39117Y-49086D01*
X39142Y-49258D01*
X39117Y-49332D01*
X39129Y-49591D01*
X39105Y-49690D01*
X39055Y-49740D01*
X38957Y-49764D01*
X36513Y-49740D01*
X36476Y-49703D01*
X36451Y-49530D01*
X36476Y-49061D01*
X36513Y-49024D01*
X36710Y-48974D01*
X36883Y-48999D01*
X38290Y-48974D01*
X38327Y-48937D01*
X38352Y-48765D01*
X38327Y-48592D01*
X38352Y-48370D01*
X38414Y-48308D01*
X38512Y-48283D01*
X38549Y-48246D01*
X38574Y-48147D01*
X38599Y-47407D01*
X38636Y-47370D01*
X38759Y-47321D01*
X38796Y-47284D01*
X38821Y-47185D01*
X38796Y-47012D01*
X38870Y-46889D01*
X38981Y-46852D01*
X39092Y-46913D01*
D02*
G37*
G36*
X56112Y-50678D02*
X56149Y-50715D01*
X56173Y-50813D01*
X56186Y-51295D01*
X56149Y-51381D01*
X56112Y-51418D01*
X55939Y-51393D01*
X55877Y-51332D01*
X55803Y-51208D01*
X55766Y-51171D01*
X55149Y-51196D01*
X36538Y-51171D01*
X36476Y-51109D01*
X36451Y-51011D01*
X36476Y-50739D01*
X36538Y-50678D01*
X36636Y-50653D01*
X46757D01*
X56112Y-50678D01*
D02*
G37*
D10*
X-3681Y4953D02*
G03*
X-3681Y4953I-500J0D01*
G01*
Y-11976D02*
G03*
X-3681Y-11976I-500J0D01*
G01*
X-96996Y-7366D02*
G03*
X-102901Y-13272I0J-5906D01*
G01*
X-73176Y-44060D02*
G03*
X-73343Y-10734I-9646J16615D01*
G01*
X-92507Y-10851D02*
G03*
X-92249Y-44186I9684J-16593D01*
G01*
X33169Y80614D02*
Y100299D01*
X13484D02*
X33169D01*
X13484Y80614D02*
Y100299D01*
Y80614D02*
X33169D01*
X-17717Y80709D02*
Y100394D01*
X-37402D02*
X-17717D01*
X-37402Y80709D02*
Y100394D01*
Y80709D02*
X-17717D01*
X-88395Y16930D02*
Y25749D01*
X-78552Y15552D02*
Y27206D01*
X-98907D02*
X-78552D01*
X-98907Y15552D02*
X-78552D01*
X-98907D02*
Y27206D01*
X-88395Y1182D02*
Y10001D01*
X-78552Y-196D02*
Y11457D01*
X-98907D02*
X-78552D01*
X-98907Y-196D02*
X-78552D01*
X-98907D02*
Y11457D01*
X-102901Y-36697D02*
Y-13272D01*
X-96996Y-7366D02*
X-92677D01*
X-82823Y-27445D02*
Y-17602D01*
X-92665Y-27445D02*
X-82823D01*
Y-37287D02*
Y-27445D01*
X-73571Y-7366D02*
X-62744Y-18193D01*
X-82823Y-27445D02*
X-72980D01*
X-62744Y-41618D02*
Y-18193D01*
X-102901Y-36697D02*
X-92075Y-47524D01*
X-73142D02*
X-68649D01*
X-62744Y-41618D01*
D11*
X-20524Y45234D02*
G03*
X-20524Y45234I-492J0D01*
G01*
X50098Y-8839D02*
G03*
X50098Y-8839I-492J0D01*
G01*
X18110Y56791D02*
G03*
X18110Y56791I-492J0D01*
G01*
X-36319Y27559D02*
G03*
X-36319Y27559I-492J0D01*
G01*
X-22638Y-32658D02*
G03*
X-22638Y-32658I-492J0D01*
G01*
D12*
X56299Y-13780D02*
G03*
X56299Y-13780I-1181J0D01*
G01*
X27362Y52559D02*
G03*
X27362Y52559I-1181J0D01*
G01*
D13*
X-45472Y-62008D02*
X-14469D01*
X-45472Y-103347D02*
X-14303Y-103177D01*
X-17276Y44250D02*
X-15307D01*
Y32045D02*
Y44250D01*
X-17276Y32045D02*
Y44250D01*
Y32045D02*
X-15307D01*
X66929Y-29528D02*
Y-9843D01*
X51181D02*
X66929D01*
X51181Y-29528D02*
X66929D01*
X51181D02*
Y-9843D01*
X22244Y22244D02*
Y56496D01*
X56496Y22244D02*
Y56496D01*
X22244D02*
X56496D01*
X22244Y22244D02*
X56496D01*
X-63189Y10630D02*
Y21654D01*
X-36811D01*
X-63189Y10630D02*
X-36811D01*
Y21654D01*
X115701Y66204D02*
X122773Y73275D01*
X73275Y122773D02*
X122773Y73275D01*
X66204Y115701D02*
X115701Y66204D01*
X66204Y115701D02*
X73275Y122773D01*
X-18110Y-33465D02*
X-5512D01*
Y-53150D02*
Y-33465D01*
X-18110Y-53150D02*
Y-33465D01*
Y-53150D02*
X-5512D01*
X-47047Y-58366D02*
X-43898D01*
X-47047Y-51870D02*
X-43898D01*
X15945D02*
X19094D01*
X15945Y-58366D02*
X19094D01*
D14*
X84449Y-34843D02*
Y-28150D01*
X88779D01*
X84449Y-34843D02*
X94685D01*
X86654Y-21949D02*
Y-17421D01*
X84449Y-11220D02*
Y-4528D01*
Y-11220D02*
X88779D01*
X86654Y-17421D02*
X88779D01*
X86654Y-21949D02*
X88779D01*
X84449Y-4528D02*
X94685D01*
Y-34843D02*
X97047Y-32480D01*
X88779Y-28150D02*
Y-21949D01*
X97047Y-32480D02*
X106102D01*
Y-6890D01*
X88779Y-17421D02*
Y-11220D01*
X94685Y-4528D02*
X97047Y-6890D01*
X106102D01*
X-87447Y98169D02*
Y99561D01*
X-88839D02*
X-87447D01*
X-88839D02*
X-87447Y98169D01*
X-70079Y17126D02*
X-69095Y16142D01*
X-71063D02*
X-70079Y17126D01*
X-71063Y16142D02*
X-69095D01*
X20774Y-79387D02*
X34554D01*
X20774Y-100646D02*
X34554D01*
D15*
X105270Y18838D02*
X105936Y19505D01*
Y20838D01*
X105270Y21504D01*
X102604D01*
X101938Y20838D01*
Y19505D01*
X102604Y18838D01*
X101938Y17505D02*
X104604D01*
X105936Y16173D01*
X104604Y14840D01*
X101938D01*
X103937D01*
Y17505D01*
X101938Y13507D02*
X105936D01*
X101938Y10841D01*
X105936D01*
Y9508D02*
X101938D01*
Y6842D01*
X100484Y-62629D02*
X97818D01*
X100484Y-59964D01*
Y-59297D01*
X99817Y-58631D01*
X98484D01*
X97818Y-59297D01*
X103816Y-62629D02*
Y-58631D01*
X101817Y-60630D01*
X104482D01*
X105815Y-58631D02*
Y-61296D01*
X107148Y-62629D01*
X108481Y-61296D01*
Y-58631D01*
X-91218Y38614D02*
X-93883D01*
Y36614D01*
X-92550Y37281D01*
X-91884D01*
X-91218Y36614D01*
Y35281D01*
X-91884Y34615D01*
X-93217D01*
X-93883Y35281D01*
X-89885Y38614D02*
Y35948D01*
X-88552Y34615D01*
X-87219Y35948D01*
Y38614D01*
X67081Y-123160D02*
X66138D01*
X65196Y-124102D01*
Y-125045D01*
X67081Y-126930D01*
X68024D01*
X68966Y-125988D01*
Y-125045D01*
X68495Y-122689D02*
X69908Y-124102D01*
X70851D01*
X72265Y-122689D01*
X70380Y-120804D01*
X71322Y-119861D02*
X73207Y-121746D01*
X72265Y-120804D01*
Y-119861D01*
Y-118919D01*
X72736Y-118447D01*
X74150Y-117034D02*
X76035Y-118919D01*
X75092Y-117976D01*
Y-117034D01*
Y-116091D01*
X75564Y-115620D01*
X80276Y-114678D02*
X79334Y-115620D01*
X78391D01*
X77448Y-114678D01*
Y-113735D01*
X78391Y-112793D01*
X79334D01*
X79805Y-113264D01*
X77920Y-115149D01*
X81690Y-113264D02*
X79805Y-111379D01*
X81218Y-109965D01*
X82161D01*
X83575Y-111379D01*
X82632Y-107609D02*
X83104Y-108080D01*
X82632Y-108551D01*
X83575Y-107609D01*
X83104Y-108080D01*
X84517Y-109494D01*
X85460D01*
X89230Y-101011D02*
X88287D01*
X87345Y-101954D01*
Y-102896D01*
X87816Y-103367D01*
X88759D01*
X89701Y-102425D01*
X90644D01*
X91115Y-102896D01*
Y-103839D01*
X90172Y-104781D01*
X89230D01*
X93942Y-101011D02*
X93000Y-101954D01*
X92057D01*
X91115Y-101011D01*
Y-100069D01*
X92057Y-99126D01*
X93000D01*
X93471Y-99597D01*
X91586Y-101482D01*
X95356Y-99597D02*
X93471Y-97712D01*
X94885Y-96299D01*
X95827D01*
X97241Y-97712D01*
X98184Y-96770D02*
X99597Y-95356D01*
Y-94414D01*
X98655D01*
X97712Y-95356D01*
X96770D01*
Y-94414D01*
X98184Y-93000D01*
X102425Y-92529D02*
X101482Y-93471D01*
X100540D01*
X99597Y-92529D01*
Y-91586D01*
X100540Y-90644D01*
X101482D01*
X101954Y-91115D01*
X100069Y-93000D01*
X103839Y-85460D02*
X106666Y-88287D01*
X108080Y-86874D01*
Y-85931D01*
X107609Y-85460D01*
X106666D01*
X105252Y-86874D01*
X106666Y-85460D01*
Y-84517D01*
X106195Y-84046D01*
X105252D01*
X103839Y-85460D01*
X109965Y-84988D02*
X110907Y-84046D01*
Y-83104D01*
X109965Y-82161D01*
X109022D01*
X108080Y-83104D01*
Y-84046D01*
X109022Y-84988D01*
X109965D01*
X110907Y-80276D02*
X111850Y-79334D01*
X112793D01*
X114206Y-80747D01*
X112793Y-82161D01*
X111850D01*
Y-81218D01*
X113264Y-79805D01*
X113264Y-77920D02*
X115149Y-79805D01*
X114206Y-78862D01*
Y-77920D01*
Y-76977D01*
X114678Y-76506D01*
X117034Y-72265D02*
X119861Y-75092D01*
X118447Y-76506D01*
X117505D01*
X116562Y-75564D01*
Y-74621D01*
X117976Y-73207D01*
X120804Y-68495D02*
X122689Y-70380D01*
X124574D01*
Y-68495D01*
X122689Y-66610D01*
X126459Y-68495D02*
X127401Y-67552D01*
X126930Y-68024D01*
X124102Y-65196D01*
Y-66138D01*
X79769Y-10540D02*
X79103Y-11206D01*
Y-12539D01*
X79769Y-13206D01*
X82435D01*
X83102Y-12539D01*
Y-11206D01*
X82435Y-10540D01*
X81102D01*
Y-11873D01*
X83102Y-9207D02*
X79103D01*
X83102Y-6541D01*
X79103D01*
Y-5208D02*
X83102D01*
Y-3209D01*
X82435Y-2542D01*
X79769D01*
X79103Y-3209D01*
Y-5208D01*
X95034Y19232D02*
X95700Y19898D01*
Y21231D01*
X95034Y21898D01*
X92368D01*
X91701Y21231D01*
Y19898D01*
X92368Y19232D01*
X91701Y17899D02*
X94367D01*
X95700Y16566D01*
X94367Y15233D01*
X91701D01*
X93701D01*
Y17899D01*
X91701Y13901D02*
X95700D01*
X91701Y11235D01*
X95700D01*
Y9902D02*
X91701D01*
X93701D01*
Y7236D01*
X95700D01*
X91701D01*
X59266Y-3512D02*
X61932D01*
X60599D01*
Y-7511D01*
X63265Y-3512D02*
X65931Y-7511D01*
Y-3512D02*
X63265Y-7511D01*
X70446Y-7453D02*
Y-3454D01*
X72445D01*
X73112Y-4120D01*
Y-5453D01*
X72445Y-6120D01*
X70446D01*
X71779D02*
X73112Y-7453D01*
X74445Y-3454D02*
X77111Y-7453D01*
Y-3454D02*
X74445Y-7453D01*
X80526Y16898D02*
Y19564D01*
X81859Y20897D01*
X83192Y19564D01*
Y16898D01*
Y18898D01*
X80526D01*
X84525Y20231D02*
X85191Y20897D01*
X86524D01*
X87191Y20231D01*
Y19564D01*
X86524Y18898D01*
X85858D01*
X86524D01*
X87191Y18231D01*
Y17565D01*
X86524Y16898D01*
X85191D01*
X84525Y17565D01*
X70290Y16898D02*
Y19564D01*
X71623Y20897D01*
X72956Y19564D01*
Y16898D01*
Y18898D01*
X70290D01*
X76954Y16898D02*
X74288D01*
X76954Y19564D01*
Y20231D01*
X76288Y20897D01*
X74955D01*
X74288Y20231D01*
X61507Y16898D02*
Y19564D01*
X62840Y20897D01*
X64173Y19564D01*
Y16898D01*
Y18898D01*
X61507D01*
X65506Y16898D02*
X66839D01*
X66173D01*
Y20897D01*
X65506Y20231D01*
X-45883Y-6541D02*
X-45216Y-5875D01*
X-43883D01*
X-43217Y-6541D01*
Y-7208D01*
X-43883Y-7874D01*
X-44550D01*
X-43883D01*
X-43217Y-8540D01*
Y-9207D01*
X-43883Y-9873D01*
X-45216D01*
X-45883Y-9207D01*
X-41884Y-5875D02*
Y-8540D01*
X-40551Y-9873D01*
X-39218Y-8540D01*
Y-5875D01*
X-37885Y-6541D02*
X-37219Y-5875D01*
X-35886D01*
X-35220Y-6541D01*
Y-7208D01*
X-35886Y-7874D01*
X-36553D01*
X-35886D01*
X-35220Y-8540D01*
Y-9207D01*
X-35886Y-9873D01*
X-37219D01*
X-37885Y-9207D01*
X-73777Y-110952D02*
Y-110010D01*
X-74720Y-109067D01*
X-75662D01*
X-77547Y-110952D01*
Y-111895D01*
X-76605Y-112837D01*
X-75662D01*
X-74720Y-111895D01*
X-75662Y-110952D01*
X-75191Y-114251D02*
X-72363Y-111423D01*
X-73306Y-116136D01*
X-70478Y-113308D01*
X-69536Y-114251D02*
X-72363Y-117078D01*
X-70950Y-118492D01*
X-70007D01*
X-68122Y-116607D01*
Y-115665D01*
X-69536Y-114251D01*
X-48789Y43459D02*
X-49456Y44125D01*
X-50789D01*
X-51455Y43459D01*
Y40793D01*
X-50789Y40127D01*
X-49456D01*
X-48789Y40793D01*
X-47456Y40127D02*
X-46123D01*
X-46790D01*
Y44125D01*
X-47456Y43459D01*
X-44124Y44125D02*
X-41458D01*
Y43459D01*
X-44124Y40793D01*
Y40127D01*
X-114722Y-71976D02*
Y-71033D01*
X-115665Y-70091D01*
X-116607D01*
X-118492Y-71976D01*
Y-72918D01*
X-117550Y-73861D01*
X-116607D01*
X-115665Y-72918D01*
X-116607Y-71976D01*
X-116136Y-75274D02*
X-113308Y-72447D01*
X-114251Y-77159D01*
X-111423Y-74332D01*
X-110481Y-75274D02*
X-113308Y-78102D01*
X-111895Y-79516D01*
X-110952D01*
X-109067Y-77631D01*
Y-76688D01*
X-110481Y-75274D01*
X605Y-22410D02*
Y-25742D01*
X1271Y-26409D01*
X2604D01*
X3271Y-25742D01*
Y-22410D01*
X4603D02*
X7269D01*
Y-23076D01*
X4603Y-25742D01*
Y-26409D01*
X-576Y9873D02*
Y6541D01*
X90Y5875D01*
X1423D01*
X2090Y6541D01*
Y9873D01*
X6088D02*
X4755Y9207D01*
X3422Y7874D01*
Y6541D01*
X4089Y5875D01*
X5422D01*
X6088Y6541D01*
Y7208D01*
X5422Y7874D01*
X3422D01*
X-14750Y-55481D02*
Y-58813D01*
X-14083Y-59480D01*
X-12750D01*
X-12084Y-58813D01*
Y-55481D01*
X-8751Y-59480D02*
Y-55481D01*
X-10751Y-57480D01*
X-8085D01*
X-27215Y53757D02*
Y50425D01*
X-26549Y49758D01*
X-25216D01*
X-24549Y50425D01*
Y53757D01*
X-23216Y53091D02*
X-22550Y53757D01*
X-21217D01*
X-20551Y53091D01*
Y52424D01*
X-21217Y51758D01*
X-21883D01*
X-21217D01*
X-20551Y51091D01*
Y50425D01*
X-21217Y49758D01*
X-22550D01*
X-23216Y50425D01*
X26881Y30822D02*
Y27490D01*
X27547Y26823D01*
X28880D01*
X29546Y27490D01*
Y30822D01*
X33545Y26823D02*
X30879D01*
X33545Y29489D01*
Y30156D01*
X32879Y30822D01*
X31546D01*
X30879Y30156D01*
X37098Y-16505D02*
Y-19837D01*
X37764Y-20503D01*
X39097D01*
X39764Y-19837D01*
Y-16505D01*
X41097Y-20503D02*
X42430D01*
X41763D01*
Y-16505D01*
X41097Y-17171D01*
X-27438Y74168D02*
X-28105Y74834D01*
X-29438D01*
X-30104Y74168D01*
Y73501D01*
X-29438Y72835D01*
X-28105D01*
X-27438Y72168D01*
Y71502D01*
X-28105Y70835D01*
X-29438D01*
X-30104Y71502D01*
X-23439Y70835D02*
X-26105D01*
X-23439Y73501D01*
Y74168D01*
X-24106Y74834D01*
X-25439D01*
X-26105Y74168D01*
X23228Y74561D02*
X22562Y75228D01*
X21229D01*
X20562Y74561D01*
Y73895D01*
X21229Y73228D01*
X22562D01*
X23228Y72562D01*
Y71895D01*
X22562Y71229D01*
X21229D01*
X20562Y71895D01*
X24561Y71229D02*
X25894D01*
X25228D01*
Y75228D01*
X24561Y74561D01*
X-41369Y-30101D02*
X-37371D01*
Y-32101D01*
X-38037Y-32767D01*
X-39370D01*
X-40036Y-32101D01*
Y-30101D01*
Y-31434D02*
X-41369Y-32767D01*
X-38037Y-34100D02*
X-37371Y-34767D01*
Y-36099D01*
X-38037Y-36766D01*
X-38704D01*
X-39370Y-36099D01*
Y-35433D01*
Y-36099D01*
X-40036Y-36766D01*
X-40703D01*
X-41369Y-36099D01*
Y-34767D01*
X-40703Y-34100D01*
X-41369Y-40098D02*
X-37371D01*
X-39370Y-38099D01*
Y-40765D01*
X-56724Y-30101D02*
X-52725D01*
Y-32101D01*
X-53391Y-32767D01*
X-54724D01*
X-55391Y-32101D01*
Y-30101D01*
Y-31434D02*
X-56724Y-32767D01*
X-53391Y-34100D02*
X-52725Y-34767D01*
Y-36099D01*
X-53391Y-36766D01*
X-54058D01*
X-54724Y-36099D01*
Y-35433D01*
Y-36099D01*
X-55391Y-36766D01*
X-56057D01*
X-56724Y-36099D01*
Y-34767D01*
X-56057Y-34100D01*
X-53391Y-38099D02*
X-52725Y-38765D01*
Y-40098D01*
X-53391Y-40765D01*
X-54058D01*
X-54724Y-40098D01*
Y-39432D01*
Y-40098D01*
X-55391Y-40765D01*
X-56057D01*
X-56724Y-40098D01*
Y-38765D01*
X-56057Y-38099D01*
X76741Y-26498D02*
X80739D01*
Y-28497D01*
X80073Y-29164D01*
X78740D01*
X78074Y-28497D01*
Y-26498D01*
Y-27831D02*
X76741Y-29164D01*
Y-30496D02*
Y-31829D01*
Y-31163D01*
X80739D01*
X80073Y-30496D01*
Y-33829D02*
X80739Y-34495D01*
Y-35828D01*
X80073Y-36494D01*
X77407D01*
X76741Y-35828D01*
Y-34495D01*
X77407Y-33829D01*
X80073D01*
X-109998Y73395D02*
X-112825Y76223D01*
X-111411Y77637D01*
X-110469D01*
X-109526Y76694D01*
Y75752D01*
X-110940Y74338D01*
X-109998Y75280D02*
X-108113D01*
X-109526Y78579D02*
Y79522D01*
X-108584Y80464D01*
X-107641D01*
X-107170Y79993D01*
Y79050D01*
X-106228D01*
X-105756Y78579D01*
Y77637D01*
X-106699Y76694D01*
X-107641D01*
X-108113Y77165D01*
Y78108D01*
X-109055D01*
X-109526Y78579D01*
X-108113Y78108D02*
X-107170Y79050D01*
X-66324Y1544D02*
Y5543D01*
X-64325D01*
X-63659Y4876D01*
Y3543D01*
X-64325Y2877D01*
X-66324D01*
X-64991D02*
X-63659Y1544D01*
X-59660Y5543D02*
X-62326D01*
Y3543D01*
X-60993Y4210D01*
X-60326D01*
X-59660Y3543D01*
Y2210D01*
X-60326Y1544D01*
X-61659D01*
X-62326Y2210D01*
X-34615Y40369D02*
X-38614D01*
Y42368D01*
X-37947Y43034D01*
X-36614D01*
X-35948Y42368D01*
Y40369D01*
Y41701D02*
X-34615Y43034D01*
Y47033D02*
Y44367D01*
X-37281Y47033D01*
X-37947D01*
X-38614Y46367D01*
Y45034D01*
X-37947Y44367D01*
X-28709Y19775D02*
X-32708D01*
Y21775D01*
X-32042Y22441D01*
X-30709D01*
X-30042Y21775D01*
Y19775D01*
Y21108D02*
X-28709Y22441D01*
Y23774D02*
Y25107D01*
Y24440D01*
X-32708D01*
X-32042Y23774D01*
X112416Y59812D02*
Y63810D01*
X114415D01*
X115082Y63144D01*
Y61811D01*
X114415Y61145D01*
X112416D01*
X119080Y59812D02*
X116414D01*
X119080Y62477D01*
Y63144D01*
X118414Y63810D01*
X117081D01*
X116414Y63144D01*
X101665Y-41763D02*
Y-37764D01*
X103664D01*
X104331Y-38431D01*
Y-39764D01*
X103664Y-40430D01*
X101665D01*
X105664Y-41763D02*
X106997D01*
X106330D01*
Y-37764D01*
X105664Y-38431D01*
X-113744Y89239D02*
X-110916Y86411D01*
X-109503Y87825D01*
Y88767D01*
X-111388Y90653D01*
X-112330D01*
X-113744Y89239D01*
X-106675Y90653D02*
X-107618Y89710D01*
X-108560D01*
X-109503Y90653D01*
Y91595D01*
X-108560Y92537D01*
X-107618D01*
X-107146Y92066D01*
X-109031Y90181D01*
X-108089Y94894D02*
X-105261Y92066D01*
X-103848Y93480D01*
Y94423D01*
X-104319Y94894D01*
X-104790Y95365D01*
X-105733D01*
X-107146Y93951D01*
X-104319Y96779D02*
X-102905Y95365D01*
X-101963D01*
X-100549Y96779D01*
X-102434Y98664D01*
X-97721Y97721D02*
X-97250Y98193D01*
Y99135D01*
X-99606Y101491D01*
X-101020Y100077D01*
Y99135D01*
X-100077Y98193D01*
X-99135D01*
X-97721Y99606D01*
X-96779Y106204D02*
X-93951Y103376D01*
X-92066Y105261D01*
Y110916D02*
X-93951Y109031D01*
X-91124Y106204D01*
X-89239Y108089D01*
X-92537Y107618D02*
X-91595Y108560D01*
X-91124Y111859D02*
X-88296Y109031D01*
X-86883Y110445D01*
Y111388D01*
X-88767Y113273D01*
X-89710D01*
X-91124Y111859D01*
X-101091Y-53119D02*
Y-57117D01*
X-98425D01*
X-97092D02*
X-95759D01*
X-96426D01*
Y-53119D01*
X-97092Y-53785D01*
X54331Y-96426D02*
X51665D01*
Y-98425D01*
X52998D01*
X51665D01*
Y-100425D01*
X55664D02*
X56997D01*
X56330D01*
Y-96426D01*
X55664Y-97092D01*
X-104089Y2452D02*
X-104755Y1786D01*
Y453D01*
X-104089Y-213D01*
X-101423D01*
X-100757Y453D01*
Y1786D01*
X-101423Y2452D01*
X-104089Y3785D02*
X-104755Y4452D01*
Y5785D01*
X-104089Y6451D01*
X-103422D01*
X-102756Y5785D01*
Y5118D01*
Y5785D01*
X-102090Y6451D01*
X-101423D01*
X-100757Y5785D01*
Y4452D01*
X-101423Y3785D01*
X-104089Y7784D02*
X-104755Y8450D01*
Y9783D01*
X-104089Y10450D01*
X-103422D01*
X-102756Y9783D01*
Y9117D01*
Y9783D01*
X-102090Y10450D01*
X-101423D01*
X-100757Y9783D01*
Y8450D01*
X-101423Y7784D01*
X-104482Y20169D02*
X-105149Y19502D01*
Y18169D01*
X-104482Y17503D01*
X-101817D01*
X-101150Y18169D01*
Y19502D01*
X-101817Y20169D01*
X-104482Y21502D02*
X-105149Y22168D01*
Y23501D01*
X-104482Y24168D01*
X-103816D01*
X-103150Y23501D01*
Y22835D01*
Y23501D01*
X-102483Y24168D01*
X-101817D01*
X-101150Y23501D01*
Y22168D01*
X-101817Y21502D01*
X-101150Y28166D02*
Y25501D01*
X-103816Y28166D01*
X-104482D01*
X-105149Y27500D01*
Y26167D01*
X-104482Y25501D01*
X-62629Y-54179D02*
X-63296Y-53513D01*
X-64629D01*
X-65295Y-54179D01*
Y-56845D01*
X-64629Y-57511D01*
X-63296D01*
X-62629Y-56845D01*
X-61296Y-54179D02*
X-60630Y-53513D01*
X-59297D01*
X-58631Y-54179D01*
Y-54845D01*
X-59297Y-55512D01*
X-59964D01*
X-59297D01*
X-58631Y-56178D01*
Y-56845D01*
X-59297Y-57511D01*
X-60630D01*
X-61296Y-56845D01*
X-57298Y-57511D02*
X-55965D01*
X-56631D01*
Y-53513D01*
X-57298Y-54179D01*
X12295Y-37644D02*
X11628Y-36977D01*
X10295D01*
X9629Y-37644D01*
Y-40309D01*
X10295Y-40976D01*
X11628D01*
X12295Y-40309D01*
X13628Y-37644D02*
X14294Y-36977D01*
X15627D01*
X16294Y-37644D01*
Y-38310D01*
X15627Y-38976D01*
X14961D01*
X15627D01*
X16294Y-39643D01*
Y-40309D01*
X15627Y-40976D01*
X14294D01*
X13628Y-40309D01*
X17626Y-37644D02*
X18293Y-36977D01*
X19626D01*
X20292Y-37644D01*
Y-40309D01*
X19626Y-40976D01*
X18293D01*
X17626Y-40309D01*
Y-37644D01*
X15051Y-61659D02*
X14384Y-60993D01*
X13051D01*
X12385Y-61659D01*
Y-64325D01*
X13051Y-64991D01*
X14384D01*
X15051Y-64325D01*
X19049Y-64991D02*
X16384D01*
X19049Y-62326D01*
Y-61659D01*
X18383Y-60993D01*
X17050D01*
X16384Y-61659D01*
X20382Y-64325D02*
X21049Y-64991D01*
X22382D01*
X23048Y-64325D01*
Y-61659D01*
X22382Y-60993D01*
X21049D01*
X20382Y-61659D01*
Y-62326D01*
X21049Y-62992D01*
X23048D01*
X-62902Y-90399D02*
X-63569Y-89733D01*
X-64901D01*
X-65568Y-90399D01*
Y-93065D01*
X-64901Y-93732D01*
X-63569D01*
X-62902Y-93065D01*
X-58903Y-93732D02*
X-61569D01*
X-58903Y-91066D01*
Y-90399D01*
X-59570Y-89733D01*
X-60903D01*
X-61569Y-90399D01*
X-57570D02*
X-56904Y-89733D01*
X-55571D01*
X-54905Y-90399D01*
Y-91066D01*
X-55571Y-91732D01*
X-54905Y-92399D01*
Y-93065D01*
X-55571Y-93732D01*
X-56904D01*
X-57570Y-93065D01*
Y-92399D01*
X-56904Y-91732D01*
X-57570Y-91066D01*
Y-90399D01*
X-56904Y-91732D02*
X-55571D01*
X-45911Y-32767D02*
X-45245Y-32101D01*
Y-30768D01*
X-45911Y-30101D01*
X-48577D01*
X-49243Y-30768D01*
Y-32101D01*
X-48577Y-32767D01*
X-49243Y-36766D02*
Y-34100D01*
X-46578Y-36766D01*
X-45911D01*
X-45245Y-36099D01*
Y-34767D01*
X-45911Y-34100D01*
X-45245Y-38099D02*
Y-40765D01*
X-45911D01*
X-48577Y-38099D01*
X-49243D01*
X-9813Y23774D02*
X-10479Y24440D01*
X-11812D01*
X-12479Y23774D01*
Y21108D01*
X-11812Y20442D01*
X-10479D01*
X-9813Y21108D01*
X-8480Y20442D02*
X-7147D01*
X-7813D01*
Y24440D01*
X-8480Y23774D01*
X-2482Y24440D02*
X-3815Y23774D01*
X-5148Y22441D01*
Y21108D01*
X-4481Y20442D01*
X-3148D01*
X-2482Y21108D01*
Y21775D01*
X-3148Y22441D01*
X-5148D01*
X-32829Y-758D02*
X-33495Y-1424D01*
Y-2757D01*
X-32829Y-3424D01*
X-30163D01*
X-29497Y-2757D01*
Y-1424D01*
X-30163Y-758D01*
X-29497Y575D02*
Y1908D01*
Y1242D01*
X-33495D01*
X-32829Y575D01*
X-33495Y6573D02*
Y3907D01*
X-31496D01*
X-32162Y5240D01*
Y5907D01*
X-31496Y6573D01*
X-30163D01*
X-29497Y5907D01*
Y4574D01*
X-30163Y3907D01*
X-64537Y43065D02*
X-65204Y43732D01*
X-66537D01*
X-67203Y43065D01*
Y40399D01*
X-66537Y39733D01*
X-65204D01*
X-64537Y40399D01*
X-63204Y39733D02*
X-61871D01*
X-62538D01*
Y43732D01*
X-63204Y43065D01*
X-57873Y39733D02*
Y43732D01*
X-59872Y41732D01*
X-57206D01*
X68746Y48849D02*
X68079Y48182D01*
Y46849D01*
X68746Y46183D01*
X71412D01*
X72078Y46849D01*
Y48182D01*
X71412Y48849D01*
X72078Y50181D02*
Y51514D01*
Y50848D01*
X68079D01*
X68746Y50181D01*
Y53514D02*
X68079Y54180D01*
Y55513D01*
X68746Y56179D01*
X69412D01*
X70079Y55513D01*
Y54847D01*
Y55513D01*
X70745Y56179D01*
X71412D01*
X72078Y55513D01*
Y54180D01*
X71412Y53514D01*
X51604Y69443D02*
X50938Y70110D01*
X49605D01*
X48939Y69443D01*
Y66777D01*
X49605Y66111D01*
X50938D01*
X51604Y66777D01*
X52937Y66111D02*
X54270D01*
X53604D01*
Y70110D01*
X52937Y69443D01*
X58935Y66111D02*
X56270D01*
X58935Y68777D01*
Y69443D01*
X58269Y70110D01*
X56936D01*
X56270Y69443D01*
X1423Y29436D02*
X757Y28770D01*
Y27437D01*
X1423Y26770D01*
X4089D01*
X4755Y27437D01*
Y28770D01*
X4089Y29436D01*
X4755Y30769D02*
Y32102D01*
Y31436D01*
X757D01*
X1423Y30769D01*
X4755Y34101D02*
Y35434D01*
Y34768D01*
X757D01*
X1423Y34101D01*
X2210Y47274D02*
X1544Y46607D01*
Y45274D01*
X2210Y44608D01*
X4876D01*
X5543Y45274D01*
Y46607D01*
X4876Y47274D01*
X5543Y48607D02*
Y49940D01*
Y49273D01*
X1544D01*
X2210Y48607D01*
Y51939D02*
X1544Y52605D01*
Y53938D01*
X2210Y54605D01*
X4876D01*
X5543Y53938D01*
Y52605D01*
X4876Y51939D01*
X2210D01*
X32798Y4876D02*
X32132Y5543D01*
X30799D01*
X30132Y4876D01*
Y2210D01*
X30799Y1544D01*
X32132D01*
X32798Y2210D01*
X34131D02*
X34797Y1544D01*
X36130D01*
X36797Y2210D01*
Y4876D01*
X36130Y5543D01*
X34797D01*
X34131Y4876D01*
Y4210D01*
X34797Y3543D01*
X36797D01*
X32798Y11569D02*
X32132Y12236D01*
X30799D01*
X30132Y11569D01*
Y8903D01*
X30799Y8237D01*
X32132D01*
X32798Y8903D01*
X34131Y11569D02*
X34797Y12236D01*
X36130D01*
X36797Y11569D01*
Y10903D01*
X36130Y10236D01*
X36797Y9570D01*
Y8903D01*
X36130Y8237D01*
X34797D01*
X34131Y8903D01*
Y9570D01*
X34797Y10236D01*
X34131Y10903D01*
Y11569D01*
X34797Y10236D02*
X36130D01*
X82919Y48940D02*
X82253Y48273D01*
Y46940D01*
X82919Y46274D01*
X85585D01*
X86251Y46940D01*
Y48273D01*
X85585Y48940D01*
X82253Y50273D02*
Y52939D01*
X82919D01*
X85585Y50273D01*
X86251D01*
X75832Y48940D02*
X75166Y48273D01*
Y46940D01*
X75832Y46274D01*
X78498D01*
X79165Y46940D01*
Y48273D01*
X78498Y48940D01*
X75166Y52939D02*
X75832Y51606D01*
X77165Y50273D01*
X78498D01*
X79165Y50939D01*
Y52272D01*
X78498Y52939D01*
X77832D01*
X77165Y52272D01*
Y50273D01*
X-15900Y-23107D02*
X-16566Y-23774D01*
Y-25107D01*
X-15900Y-25773D01*
X-13234D01*
X-12568Y-25107D01*
Y-23774D01*
X-13234Y-23107D01*
X-15900Y-21775D02*
X-16566Y-21108D01*
Y-19775D01*
X-15900Y-19109D01*
X-15233D01*
X-14567Y-19775D01*
Y-20442D01*
Y-19775D01*
X-13901Y-19109D01*
X-13234D01*
X-12568Y-19775D01*
Y-21108D01*
X-13234Y-21775D01*
X-16294Y-6178D02*
X-16960Y-6845D01*
Y-8178D01*
X-16294Y-8844D01*
X-13628D01*
X-12961Y-8178D01*
Y-6845D01*
X-13628Y-6178D01*
X-12961Y-2180D02*
Y-4845D01*
X-15627Y-2180D01*
X-16294D01*
X-16960Y-2846D01*
Y-4179D01*
X-16294Y-4845D01*
X-13780Y55664D02*
X-14446Y56330D01*
X-15779D01*
X-16445Y55664D01*
Y52998D01*
X-15779Y52331D01*
X-14446D01*
X-13780Y52998D01*
X-12447Y52331D02*
X-11114D01*
X-11780D01*
Y56330D01*
X-12447Y55664D01*
D16*
X-53791Y18100D02*
Y14820D01*
X-53135Y14164D01*
X-51823D01*
X-51167Y14820D01*
Y18100D01*
X-47232D02*
X-49855D01*
Y16132D01*
X-48544Y16788D01*
X-47888D01*
X-47232Y16132D01*
Y14820D01*
X-47888Y14164D01*
X-49200D01*
X-49855Y14820D01*
X-76771Y3677D02*
X-72835D01*
Y6301D01*
X-76771Y10236D02*
Y7612D01*
X-72835D01*
Y10236D01*
X-74803Y7612D02*
Y8924D01*
X-76771Y11548D02*
X-72835D01*
Y13516D01*
X-73491Y14172D01*
X-76115D01*
X-76771Y13516D01*
Y11548D01*
X-72835Y15484D02*
Y16796D01*
Y16140D01*
X-76771D01*
X-76115Y15484D01*
M02*
